<mxfile host="app.diagrams.net" modified="2022-10-19T19:44:11.160Z" agent="5.0 (Macintosh)" etag="RT_wSpvkjyVZEwZR__9f" version="20.4.1" type="github">
  <diagram id="nMjQSxx6t97Jas8_ttPc" name="Page-2">
    <mxGraphModel dx="1437" dy="556" grid="0" gridSize="10" guides="1" tooltips="1" connect="1" arrows="1" fold="1" page="1" pageScale="1" pageWidth="1920" pageHeight="1200" math="0" shadow="0">
      <root>
        <mxCell id="0" />
        <mxCell id="1" parent="0" />
        <mxCell id="W0iHSewVSvGhZV9dLP-F-3" value="Corporate data center" style="points=[[0,0],[0.25,0],[0.5,0],[0.75,0],[1,0],[1,0.25],[1,0.5],[1,0.75],[1,1],[0.75,1],[0.5,1],[0.25,1],[0,1],[0,0.75],[0,0.5],[0,0.25]];outlineConnect=0;gradientColor=none;html=1;whiteSpace=wrap;fontSize=12;fontStyle=0;container=1;pointerEvents=0;collapsible=0;recursiveResize=0;shape=mxgraph.aws4.group;grIcon=mxgraph.aws4.group_corporate_data_center;strokeColor=#5A6C86;fillColor=none;verticalAlign=top;align=left;spacingLeft=30;fontColor=#5A6C86;dashed=0;" parent="1" vertex="1">
          <mxGeometry x="230" y="440" width="338" height="361" as="geometry" />
        </mxCell>
        <mxCell id="W0iHSewVSvGhZV9dLP-F-6" value="Amazon EKS Anywhere" style="fillColor=none;strokeColor=#5A6C86;dashed=1;verticalAlign=top;fontStyle=1;fontColor=#5A6C86;" parent="W0iHSewVSvGhZV9dLP-F-3" vertex="1">
          <mxGeometry x="20" y="40" width="303" height="292" as="geometry" />
        </mxCell>
        <mxCell id="W0iHSewVSvGhZV9dLP-F-11" value="Workload Cluster" style="fillColor=#EFF0F3;strokeColor=none;dashed=0;verticalAlign=top;fontStyle=1;fontColor=#232F3D;" parent="W0iHSewVSvGhZV9dLP-F-3" vertex="1">
          <mxGeometry x="55" y="90" width="252" height="215" as="geometry" />
        </mxCell>
        <mxCell id="W0iHSewVSvGhZV9dLP-F-4" value="" style="sketch=0;points=[[0,0,0],[0.25,0,0],[0.5,0,0],[0.75,0,0],[1,0,0],[0,1,0],[0.25,1,0],[0.5,1,0],[0.75,1,0],[1,1,0],[0,0.25,0],[0,0.5,0],[0,0.75,0],[1,0.25,0],[1,0.5,0],[1,0.75,0]];outlineConnect=0;fontColor=#232F3E;gradientColor=#F78E04;gradientDirection=north;fillColor=#D05C17;strokeColor=#ffffff;dashed=0;verticalLabelPosition=bottom;verticalAlign=top;align=center;html=1;fontSize=12;fontStyle=0;aspect=fixed;shape=mxgraph.aws4.resourceIcon;resIcon=mxgraph.aws4.eks_anywhere;" parent="W0iHSewVSvGhZV9dLP-F-3" vertex="1">
          <mxGeometry x="20" y="40" width="40" height="40" as="geometry" />
        </mxCell>
        <mxCell id="W0iHSewVSvGhZV9dLP-F-9" value="" style="shape=image;verticalLabelPosition=bottom;labelBackgroundColor=default;verticalAlign=top;aspect=fixed;imageAspect=0;image=data:image/png,iVBORw0KGgoAAAANSUhEUgAAAJUAAABGCAYAAADFCNbOAAAMbWlDQ1BJQ0MgUHJvZmlsZQAASImVVwdYU8kWnluSkJDQAghICb0jUgNICaEFkF4EGyEJJJQYE4KKvSwquHYRxYquiii2lWYBsSuLYu+LBRVlXdTFhsqbkICu+8r3zvfNvX/OnPlPuTO59wCg+YErkeShWgDkiwukCeHBjDFp6QzSU4ADHaAPSIDK5ckkrLi4aABl8P53eXcDIIr7VWcF1z/n/6vo8AUyHgDIOIgz+TJePsTNAOAbeBJpAQBEhd5ySoFEgedArCuFAUK8WoGzlXiXAmcq8dEBm6QENsSXAVCjcrnSbAA07kE9o5CXDXk0PkPsKuaLxABoOkEcwBNy+RArYnfKz5+kwOUQ20F7CcQwHsDM/I4z+2/8mUP8XG72EFbmNSBqISKZJI877f8szf+W/Dz5oA8bOKhCaUSCIn9Yw1u5k6IUmApxtzgzJlZRa4g/iPjKugOAUoTyiGSlPWrMk7Fh/eAzB6grnxsSBbExxGHivJholT4zSxTGgRjuFnSqqICTBLEBxIsEstBElc0W6aQElS+0NkvKZqn057jSAb8KXw/kucksFf8boYCj4sc0ioRJqRBTILYqFKXEQKwBsYssNzFKZTOqSMiOGbSRyhMU8VtBnCAQhwcr+bHCLGlYgsq+JF82mC+2RSjixKjwwQJhUoSyPtgpHncgfpgLdlkgZiUP8ghkY6IHc+ELQkKVuWPPBeLkRBXPB0lBcIJyLU6R5MWp7HELQV64Qm8BsYesMFG1Fk8pgJtTyY9nSQrikpRx4kU53Mg4ZTz4chAN2CAEMIAcjkwwCeQAUVt3XTf8pZwJA1wgBdlAAJxVmsEVqQMzYnhNBEXgD4gEQDa0LnhgVgAKof7LkFZ5dQZZA7OFAytywVOI80EUyIO/5QOrxEPeUsATqBH9wzsXDh6MNw8Oxfy/1w9qv2lYUBOt0sgHPTI0By2JocQQYgQxjGiPG+EBuB8eDa9BcLjhTNxnMI9v9oSnhHbCI8J1Qgfh9kTRPOkPUY4GHZA/TFWLzO9rgdtATk88GPeH7JAZ18eNgDPuAf2w8EDo2RNq2aq4FVVh/MD9twy+exoqO7IrGSUPIweR7X5cqeGg4TnEoqj19/VRxpo5VG/20MyP/tnfVZ8P71E/WmKLsEPYWewEdh47itUBBtaE1WOt2DEFHtpdTwZ216C3hIF4ciGP6B/+Bp+sopIy12rXLtfPyrkCwdQCxcFjT5JMk4qyhQUMFnw7CBgcMc/FieHm6uYGgOJdo/z7ehs/8A5B9Fu/6eb/DoB/U39//5FvusgmAA54w+Pf8E1nxwRAWx2Acw08ubRQqcMVFwL8l9CEJ80QmAJLYAfzcQNewA8EgVAQCWJBEkgDE2D0QrjPpWAKmAHmgmJQCpaDNWA92Ay2gV1gLzgI6sBRcAKcARfBZXAd3IW7pxO8BD3gHehDEISE0BA6YoiYIdaII+KGMJEAJBSJRhKQNCQDyUbEiByZgcxHSpGVyHpkK1KFHEAakBPIeaQduY08RLqQN8gnFEOpqC5qgtqgI1AmykKj0CR0PJqNTkaL0AXoUrQcrUT3oLXoCfQieh3tQF+ivRjA1DF9zBxzxpgYG4vF0rEsTIrNwkqwMqwSq8Ea4XO+inVg3dhHnIjTcQbuDHdwBJ6M8/DJ+Cx8Cb4e34XX4qfwq/hDvAf/SqARjAmOBF8ChzCGkE2YQigmlBF2EA4TTsOz1El4RyQS9Ym2RG94FtOIOcTpxCXEjcR9xGZiO/ExsZdEIhmSHEn+pFgSl1RAKiatI+0hNZGukDpJH9TU1czU3NTC1NLVxGrz1MrUdqsdV7ui9kytj6xFtib7kmPJfPI08jLydnIj+RK5k9xH0abYUvwpSZQcylxKOaWGcppyj/JWXV3dQt1HPV5dpD5HvVx9v/o59YfqH6k6VAcqmzqOKqcupe6kNlNvU9/SaDQbWhAtnVZAW0qrop2kPaB90KBruGhwNPgaszUqNGo1rmi80iRrWmuyNCdoFmmWaR7SvKTZrUXWstFia3G1ZmlVaDVo3dTq1aZrj9SO1c7XXqK9W/u89nMdko6NTqgOX2eBzjadkzqP6Rjdks6m8+jz6dvpp+mdukRdW12Obo5uqe5e3TbdHj0dPQ+9FL2pehV6x/Q69DF9G32Ofp7+Mv2D+jf0Pw0zGcYaJhi2eFjNsCvD3hsMNwgyEBiUGOwzuG7wyZBhGGqYa7jCsM7wvhFu5GAUbzTFaJPRaaPu4brD/YbzhpcMPzj8jjFq7GCcYDzdeJtxq3GvialJuInEZJ3JSZNuU33TINMc09Wmx027zOhmAWYis9VmTWYvGHoMFiOPUc44xegxNzaPMJebbzVvM++zsLVItphnsc/iviXFkmmZZbnassWyx8rMarTVDKtqqzvWZGumtdB6rfVZ6/c2tjapNgtt6mye2xrYcmyLbKtt79nR7ALtJttV2l2zJ9oz7XPtN9pfdkAdPB2EDhUOlxxRRy9HkeNGx3YngpOPk9ip0ummM9WZ5VzoXO380EXfJdplnkudy6sRViPSR6wYcXbEV1dP1zzX7a53R+qMjBw5b2TjyDduDm48twq3a+409zD32e717q89HD0EHps8bnnSPUd7LvRs8fzi5e0l9arx6vK28s7w3uB9k6nLjGMuYZ7zIfgE+8z2Oerz0dfLt8D3oO+ffs5+uX67/Z6Psh0lGLV91GN/C3+u/1b/jgBGQEbAloCOQPNAbmBl4KMgyyB+0I6gZyx7Vg5rD+tVsGuwNPhw8Hu2L3smuzkECwkPKQlpC9UJTQ5dH/ogzCIsO6w6rCfcM3x6eHMEISIqYkXETY4Jh8ep4vREekfOjDwVRY1KjFof9SjaIVoa3TgaHR05etXoezHWMeKYulgQy4ldFXs/zjZuctyReGJ8XHxF/NOEkQkzEs4m0hMnJu5OfJcUnLQs6W6yXbI8uSVFM2VcSlXK+9SQ1JWpHWNGjJk55mKaUZoorT6dlJ6SviO9d2zo2DVjO8d5jised2O87fip489PMJqQN+HYRM2J3ImHMggZqRm7Mz5zY7mV3N5MTuaGzB4em7eW95IfxF/N7xL4C1YKnmX5Z63Mep7tn70qu0sYKCwTdovYovWi1zkROZtz3ufG5u7M7c9LzduXr5afkd8g1hHnik9NMp00dVK7xFFSLOmY7Dt5zeQeaZR0hwyRjZfVF+jCj/pWuZ38J/nDwoDCisIPU1KmHJqqPVU8tXWaw7TF054VhRX9Mh2fzpveMsN8xtwZD2eyZm6dhczKnNUy23L2gtmdc8Ln7JpLmZs797d5rvNWzvtrfur8xgUmC+YsePxT+E/VxRrF0uKbC/0Wbl6ELxItalvsvnjd4q8l/JILpa6lZaWfl/CWXPh55M/lP/cvzVratsxr2ablxOXi5TdWBK7YtVJ7ZdHKx6tGr6pdzVhdsvqvNRPXnC/zKNu8lrJWvrajPLq8fp3VuuXrPq8Xrr9eEVyxb4PxhsUb3m/kb7yyKWhTzWaTzaWbP20Rbbm1NXxrbaVNZdk24rbCbU+3p2w/+wvzl6odRjtKd3zZKd7ZsSth16kq76qq3ca7l1Wj1fLqrj3j9lzeG7K3vsa5Zus+/X2l+8F++f4XBzIO3DgYdbDlEPNQza/Wv244TD9cUovUTqvtqRPWddSn1bc3RDa0NPo1Hj7icmTnUfOjFcf0ji07Tjm+4Hh/U1FTb7OkuftE9onHLRNb7p4cc/LaqfhTbaejTp87E3bm5FnW2aZz/ueOnvc933CBeaHuotfF2lbP1sO/ef52uM2rrfaS96X6yz6XG9tHtR+/EnjlxNWQq2euca5dvB5zvf1G8o1bN8fd7LjFv/X8dt7t13cK7/TdnXOPcK/kvtb9sgfGDyp/t/99X4dXx7GHIQ9bHyU+uvuY9/jlE9mTz50LntKelj0ze1b13O350a6wrssvxr7ofCl52ddd/If2Hxte2b369c+gP1t7xvR0vpa+7n+z5K3h251/efzV0hvX++Bd/ru+9yUfDD/s+sj8ePZT6qdnfVM+kz6Xf7H/0vg16uu9/vz+fglXyh34FMDgQLOyAHizEwBaGgB02LdRxip7wQFBlP3rAAL/CSv7xQHxAqAGfr/Hd8Ovm5sA7N8O2y/Irwl71TgaAEk+AHV3HxoqkWW5uym5qLBPITzo738LezbSKgC+LO/v76vs7/+yDQYLe8dmsbIHVQgR9gxbOF8y8zPBvxFlf/pdjj/egSICD/Dj/V/yp5DIG6G/zAAAAHplWElmTU0AKgAAAAgABAEGAAMAAAABAAIAAAESAAMAAAABAAEAAAEoAAMAAAABAAIAAIdpAAQAAAABAAAAPgAAAAAAA5KGAAcAAAASAAAAaKACAAQAAAABAAAAlaADAAQAAAABAAAARgAAAABBU0NJSQAAAFNjcmVlbnNob3RhqjecAAAC7mlUWHRYTUw6Y29tLmFkb2JlLnhtcAAAAAAAPHg6eG1wbWV0YSB4bWxuczp4PSJhZG9iZTpuczptZXRhLyIgeDp4bXB0az0iWE1QIENvcmUgNi4wLjAiPgogICA8cmRmOlJERiB4bWxuczpyZGY9Imh0dHA6Ly93d3cudzMub3JnLzE5OTkvMDIvMjItcmRmLXN5bnRheC1ucyMiPgogICAgICA8cmRmOkRlc2NyaXB0aW9uIHJkZjphYm91dD0iIgogICAgICAgICAgICB4bWxuczp0aWZmPSJodHRwOi8vbnMuYWRvYmUuY29tL3RpZmYvMS4wLyIKICAgICAgICAgICAgeG1sbnM6ZXhpZj0iaHR0cDovL25zLmFkb2JlLmNvbS9leGlmLzEuMC8iPgogICAgICAgICA8dGlmZjpDb21wcmVzc2lvbj4xPC90aWZmOkNvbXByZXNzaW9uPgogICAgICAgICA8dGlmZjpSZXNvbHV0aW9uVW5pdD4yPC90aWZmOlJlc29sdXRpb25Vbml0PgogICAgICAgICA8dGlmZjpQaG90b21ldHJpY0ludGVycHJldGF0aW9uPjI8L3RpZmY6UGhvdG9tZXRyaWNJbnRlcnByZXRhdGlvbj4KICAgICAgICAgPHRpZmY6T3JpZW50YXRpb24+MTwvdGlmZjpPcmllbnRhdGlvbj4KICAgICAgICAgPGV4aWY6UGl4ZWxYRGltZW5zaW9uPjE0OTwvZXhpZjpQaXhlbFhEaW1lbnNpb24+CiAgICAgICAgIDxleGlmOlVzZXJDb21tZW50PlNjcmVlbnNob3Q8L2V4aWY6VXNlckNvbW1lbnQ+CiAgICAgICAgIDxleGlmOlBpeGVsWURpbWVuc2lvbj43MDwvZXhpZjpQaXhlbFlEaW1lbnNpb24+CiAgICAgIDwvcmRmOkRlc2NyaXB0aW9uPgogICA8L3JkZjpSREY+CjwveDp4bXBtZXRhPgoANTInAAAZq0lEQVR4Ae2d53KbSXaGmyQCCSYwZ1GiRMVJmlrvVK3tP74CX4Cr/N8X5H++E1e5XOuq3S3PendmVtIokRIl5pxAEkx+n9NoECQhEiCCKAmtIfDhCx1Ov31yf1P3z//678euVmoUKAcF6pyLNtS7SEtzvBzV1eqoUcAoEInUu/pq0aJOKK6VL4MCVQOVc0KVAasmbT93aEWqMcD6+joXjTa44+Njd3BwqO86O65G27U2qk+BqoCqTrKvtUW6mzjVzs6+S6cPM+Cq/oBrLVaeAlUDVTQScZ2dCXd0eOzevl8RqI6MW9V0rcpPcrVbqAqoGBSib6C3XRyr0S2ubLnd3X13rH91XtGq9rhr7VWQAlVT1A+Pj1xHe7O7NdLl+gUudCxhqlY+QwpUDVQAKBppcJ0dLe7OzR7X3BzzBmFN/n12sKoeqEQ6rMDW5kbjVh1tLS4mblVzX312mKqe8zOQLhqNuJ6uVjc82O7a25pcjVEFynw+31XlVCjrDQ11rq21yY0Od7luiULcDbXyeVGguqAS7QBRY2PM3brR7Xp6Wl29ApA1YNVAVQIFvLkXVdDxhjjVQF+7i8cjxr1KqLT26DWjQFU5lY1d0g6FHSUdEXj3dp+5F5CCko618hlQoPqgyiHaUH/SPRzvd62tjRkRWENVDnk+2cOPCqqO9oRxq/6etkzA+ZOlY63jORT4qKBqkJLekUzIGdrrEoloTrdqh58yBSoKqkKEWXMi7kYGO1x3slVKe7RmCX7KaMr0vaKgwgOFuwDf1Idc5/FYxPVK/A30t8l/Ff/QbZ8Bqb+cIVQMVDg6CRonEjEXlxe9XuDKZ901NDS4ZFvC3ZQl2KmAcw1Vnz74KgKq4B7o7EjIydnlmqQvkeKSTxxyL76q8bE+19vXVnOGfvqYqkzsz4u8ejk3k278Vq9rjMckBkWtfKxKp3GG9ssROiwXQ0d700d1hgL8D3TzWk03kiD37zp1riKcqr6+XikuCTc8kHR9CsWwbeeiwv2NUtJvKtfqttJiEJsXYPCiqkq6xmJATKs7tgjow3UsYdE2iK4RpRNhRXPuupSyZn6yyuUsFygIw3Q6nJtNjdHC2KEeHh7odA/vDrjXbxfd3t6Bc4dHqrE6xPKbMyIuglGhciROQMrzkfrA8XXgXuAG8DSKpmTQYi3Tv9TOntvc2rs2ef9lBRWUh+s0KWCM4k368FZqz5KGbaYu+ACQJO7xzMhgp9vc3HOpVNqLzQueK8clJosV393Z7Nhci/63r8la30hpsnbdfvogrz5YrrZzuQwijZIPxNxHP8mc/e7RkBsa6HBb27vu11fz7m+/zrjtbXYq8Xx1FqJ1NM9HeUGlBsg6YGJGRzpdT3erS71P52n2/CkmlszQjmSzAfLN1JJ23uhZ6OPpfP6hMpxhElgIzbJSf/PdqLsjHZDfKS2Gn56+d89fz7mV5e38s1xi+4yZcgKEDKDs7PmBI5p7ulrcg/E+9/jrUVnLCaNPoinmVla33eTUvnH4UK9V8xE+ygqqwJqHlIDX19OuidKqL3KELcoMHZYztFPg2trec/v7Wn1VIExM/jLavX9nwDVIhm9s7biZhXX39t0yMkc9qEQv6lxXV8I7fiXSaGN1LeVW1raNSx8h/XOLupGQFOhSHhqJjqZaqK998vMllfCICL8OpWygYrWhMDK4e3IPkNXJIIvdLcPkotwPDrS71XUReDUlOlViQj35Q81MB/0FUHAqFgNzxHelpop6EfXff33DdSVJWHTu6atZ99OTae02WnVHR6F3mb7q574247ITaWc3bf2Fu6e0l5Lz2ltyLUrZQIUym5Di2NfbJhHS7xJNca/gFjkjKMpJsfWxGz1udm7TVi6UMlWhGiSz/mr2jDvpx+l5LWsP6mRlElRH/+wRtxGU3ar0uIk3SwZsmQun2mPhrun6u9lVN/R+2XVLFB4dOvdmatnNzK27wyoaNqc6duZHeUAl2h9qk2h3R7O7f7vfgsSs+AOdK7aYCJVf696dfvfqzaKbkCUIooqvqdiWi7/fAz3TtzMdNExSZR5OF55DvHEfrgHyyygRcw8w5OCHynBL8K1zW7LyXryeN2uvVWGt/f0jt7S0ZVz9UBVm27XaTj5Cm9bNIvp6UkPhR2UBFWICr3h/f7sbG+2Wz8lXawM5M4BCugZhe7raLND8sqvZLa9suyOZ99epMHkoziYeIQCCni8Vxn0CitPuCO4x0apnUBdyfUzhPBZeePfEsURgAAJHB1il6ztud2/fETflN68R2Lcd3779fJ+miqjx8J17D20Etwn9LrWUB1TSQZJKYRnuV7aBFEhAUUqB8DF8XUOdtkcQH8zhYVo6hl/ZpdRdjmeZGHS/RFPUxHyTxH405p2QTArcg0lP7cotsp02iwwuQqnTszh60TlbZMigcMf0bABoa3OT3Cptbi8tPUlgwV+3JT8UHArxBuBaWmIu2ZowfyCI25RbYUUKflptnMOEaEnEgqgGFi7GU7wRf1y93Uud6Gjbsna35MLZU7/xz5VSSgIVAxCebKAj8pkMilNBYBRdX66GelYsdQ8S5pHSjxhk4F7HyLCDUkZd5LO5owBQOB/ZCXRLbpNhAb+nu8XcKPFYVMqyRJSAtLSyKT1nzb2dXnGz8+tmyaIiAJ7uzhb3m29vuBE9SygLIDFmLIJ+xT9/iN9yj+4NmvK9rFcEBD8Ujs4mAfm28s++fThkbUKnFxNz7k9/njSOdSxt3erSGJkHMkTaFfoaUnTj5lCXLNyk61L7+BIBJAr/4vKmm1I/J6Sbzc2vWV/9uy6KJFTm9pJAZb0SJRB37I7Bg441cqpcFQN6Dq/xIDFBAXZ1bceI3ADxP1I5EidoE4cZH+t1j78adTfkguA3YCKKUIfmrVlm9Q8PddiCmF9aFyjm3F9+eWdinAlv0RtwANT4WL+AEctyKQDC9jW4CZYfr12aSay5peUt4zYH+3BI7fJONimk1W0GDZwRBy2cM5CGejgmPDaqdh7eG3D3lbbdhXM3IU+87iU7xPqqMfXJmTqq+u6OrcuJOu2ePJ+1hXBVMpcIKu/hZfJHRERYOey9XAW9AmcoYnBCztC0PNsfozAiwID+c0Or/bePb2kC+i1lB6a8s3sgRXnHRIeJJ4ECB3C7ANIp4yUei9nE76TkCpB4oTDp9qdFKQz49ckBf3bN62sco0sJY3Y+iN4WibJWtQGo4Jz1AFqF25gC+tEh8H0tjvb4qxEDDmDifsC6Y5zfi0bEMH/tLSeABqg4n69ibF0ZVKwGCEq+1JBWLKEDBsf5chZzhopT4cfZDs7QMrdxeX99kNnvV+ySaBo2x6PmLiM6Vt3cwobExo5xLRYXnAinJN5u1AJ8d2+nVtyudKWNjV33enLRwGhZr7ofPQtErKxvi6Nt+fCQHL9LOp5b3DQgZPuZM37em2Ml80UdgBUxOabg/Ff3B9WXLoHyyIC0srplzlUcyzAAXkOAOMbZjLF1WxEFdLQFccfXUjsOBSzUQeostFwZVFCA1YHC+O2DYSmeChmoFNP4RZ0MYwCopMUMDLSJ4DKdzRl60ZOVuEYox5ku0iFwx8VBUXTx9j99Mev+63+ei1Ntu7QUdCa1U0bLt4+G3e9+e8cWW4RERCUgNmsC6xVOAYD/+fvnJsr+8Yfb7h9+GLcIBGN+J93mj3+ekB65kH05HPoN+lgubQ1XfJxZxXC1OnW2TdIDvatfOht61UH62AD6418n3ZNfZ92SwIUro0eAgpN9/43CPgIW95It8v1XN9z80saVdNkrg+pQ/Li1VVxqqN0yEggZVKLg7wKw+L/m5zbcMnE4rc5cAlei3dN1+vbi0mewSs0QEQKw6DY2/arGkLBXT+pBzj99MWciqFfxT+YdZZhsAnSlw8NDyy7Y3z+QlXdg5xBLjAug4iHf2kqbuLfz/pLFVU/36/wvvOq8rwLH6GBfh3FU7iLw/ET6Et76aRkQ6H2I9GBVshp+93fjri0iq1SGAwZDd2erW7uCLnslUIUJJQY1LksEr3CpboTz5PFnGHiT2DI7blB4J98tafK0Hs+s0A89X57ztFdn5r3FImlb/8GBSPH5/psRNzO7bpx0Z0cZDbqG2PpZAemEdBXoxWsp1zd3BKBg9lNnDqPhWPcxrtN/GTroOo3CzS4qFtmQ6OsTmJulczWIa1EfqsOLiXlxyXUTg0QuqBJgY6W+koWIWDeXgxYPenKX9ME34mYW/vEq20VNZ69dEVR1Jn8Jydwc7jY9IltjBQ5QOnu75QyVbvVK7HpJzlAmt5rlWGAgRAJYCDaTV4/Fd48Igo6ZsFlNGP6iLXGvbeki67pvfgl9SDlZ4lCY+0w6hU8Dlf3yH1nAZABk13UMKP1TOTd/4BAAYY2jJ2GJ8yztb8sHtSjPO8YO7WS6YdxqT/4wOBLj67Wkyqi5HJLa5IsFqZ5/oLX8p68EKiwQzNMh6Trs22PSK1loj2GZ2Xt7TXlOb0zUaJ6NaJVs29ddJ5F2bJ7sibdLsgDn3YO7g7aqMeUH5PTtEejx+ZBhMLewZnrTzPyGm1aczoLimkXed5o7PVkQnR2AXfBXAUUxBbAwH00yELBWKWktwG2J3v0Dnxd2tk6AyD2ISMZJiUmEYpiYqM/ttF29+KMoUNFhOkRnSRDDoQZ7R4mtdIG26Cf4Z17JctqTQ5FXPiIeK12AAoSnvJtedf/9h5fSkbbcd1JwsXqJ2+E/Qq9EbPQJYONjadNXpudWTWz/8mxaiYe75hytbJ8Rkd4dEdpBf8Izn8HLaXKJfAwNPfCAVZoZJwsZlQbyFokpVxSo4JvmJxERiawPaYWec3ae7nLZfjG4NvlReFMMSiRiiOzMahYmiWzUSXme0ZGw+PCh9St3DH+a10ci5qMynSR5ZJYgPqBDiaAnshTx/xQ2S8VOZaAEXN0vggw+bM5s72W4Jfc70wxjwyjCWKAgpgFjqMNOFvhRFKhoDi6FYh6cnYCsKkWD9t7kZulWnW5SYgjLqbAJKq2HJyPUDKgf6HMz4pQLMrlfTSxa6INwC+8z7ZCHnbgef4ggwMaE4Wycl78JK5HcJ/p9Fjanf5+0Wkzvecpzpn0zCngWjkNYJuhYtJNbO/3jWpPig2E+LW9LjloMC10uqhQMKhBL5bzz4JYyEWD7OMvOk6ao9gu+OYyrTcojgEZRtmR/TfDpySi4yiJu9NF9FhRe6ZiN24NrQa4C/mLPZ+RBVxanTHkMirtydo6N9lhIhrfa0OdO6aHca6D6QOtMMP+s6Mvo/oF7853GoUkwe1l+KHQo5gcdC0sQ2i0uN2hRoIxmntY3yjhObFw3YedTWnUQZEYPzPYnX4N5zhUMKjqH0pZsbTZdgtdX+xJ6l6f2CpzC8wxXIDCKteIzQyvQ0KkqfVYrr+t+oN0+I2qbyZ5b3HC/PJ12LycXLESTUhhmQdYeyvmyRCMbORqbus2sZ9LIaiBjAIqFhZBLPRYt+lk05t0AXrH3QWjAVkghYI2fCy88KTG4QhB9eM5vKgA+M79qi1F7xq06xFx7j17uq02/BJ5xQWAtpsRRV5R5S0pNgU1nu1cwqDCJ29ri8suQjdCR4VLZevIfqDeQojBy5K/i7FmATUztgQKkc7KuyLUqlOBn6yr8tx8FHKqvt9XdVR47I4NbY/HhnU4RJ9MEIBqZTFvhmfFbOzihMiULKJ3CAAhGAHeQQXBrpMetrKTMJbGnycUyM2el2gzPhrrOfgMA+sBiA9xk0TZLDKPvPZTFyvloRIaOVAcAyCL9+sGgIgAjdh8hRHxa81owLBAcusXSt2BQgQzSPW7D0oV6EH1pYTmrXEaIS+vJvUH9QOzekXh5pq1Jb/hfkoiIwf+Te2v5jv0IsN4IsgYx2BhvV/R/wILES/L0o7wzqbhb7iqTAbHHvYAMBR1f0VnRB2B2FZDGMrO0GMUBH4kbogcRllqQb2lO+huGydmSj64AAD0IX9pzOYt591ezjAnE9k2BFT8VO3JWN1M2h7y/4r6ybG/JqmaOCQfNy9/2Sn43kgG9TqULRZSCQIXyFo1GLW8IawcPN8TLLWG1gSOOWcmsXJAevMgYa3YuIpYaHlZFHOfWd9HK4F5ERKdicGwamOheMqLDGSpZGBP/+xMU9DWJBdwbJOaR74XnmVXNCgdEcAccw1ircPhNTfCUcsrZRgXAGIP1Vh/rCi7D6XDRoM+QjzYqMUs6Smp3V8CYdz/+dUo60ra5Ixgjz140WubAPOivF8w6bZGbA0aQaIq4R/eHrH4AjliEgyUa/a4n3ArrG9vu2cs597NcIGl52ym5c2MnLvkoEFT1xpbJa4I953N2BiBAfAYMmNbUQZLVLL6ls7t7aSMwpitpLaxMY+h8F9Fz7oVTouPMjPWYUnq4i9e6eAJk6aOZJlcronpRduEU+soSFIJjuf0sHQqg/NPf35cakDSREY8mLf3ZRBR907MAhD6yIZW9g3/8v0l5tDflWjgxLJCIc4vr2uiwaC6aeLzNnq2v9+nEcOT21g1ZbuQ/SdfRLgcAySKnn7QBvfmdJR83qLB4iTf+/k+v3J7A8cPj2wIWep2cmgJuR1ILX/fyLPMAx1zS/X9QMPunv71Xv3esDgBabCkIVDSOYkwKR0RgwDwmKAorR37vyrG2K91iO0V4Qmm0EhH4c9bFYjGj2aXMIH9VkBWLgtXBwHyAVtYU3lsRMKZkN7OuTFlVyqtNDJPkU3WZJIhrRBR5ATj5Tc+1EWBe+pVgpfFnqFogJcLdjAWH5tT0srVHagiGAAvCFoqqlk/ckgWfaRzMCKDG0QknsJRgUKhJQLlFTLLF7N3MiqWQvJd+AygRc9miY9JgXoijsMhuSlnuJgtCtAHYgBTulhJtw2Kln0w42aR4yQE4qTKAgrbDeLifvr+bWdWzcMQd41q9Eq9Nor/3SQl8aoONs8zTxNsFccYFy044kIV4VZXiQlAxfjqpubQkLjr3Xh7ltExVgAPh+AY0W9IZmAii3uTjEPsyL26Gigx+Uol2pK0CDAAFgMidhohNmRVkYBPAPOgip0DmAefPwS1932TZSHEnrnWsyWQBFFfEKzUu9KFn0kEAEuDFLH/7btX0IK6Hgignvve/f3njpt6t2B5FQlWk6EQFfiYi6FC4D4gHoptQRwiBhLqYeHScGaXwbohmU6Jtt15sgqWIQQLNAPqiJhyAcT/9nJ5Zcz9G3ljOFOemtT2LufAywhMgtMccQHfSWMjdwnlscUu4nDpC+4x5bmHTAXzqhwH4ukJPi/uu+5d/+48ckp1/mEkivsWLM7pEPONKSjSDIyG3sX44x6Ahgv9Tp3TMwLJL50zV1OtFnvcBBRbOOY4RP3BFXpjmuRiczAMqcDPOY/oyGVNS2C1YWjyqrGesXNoD8FAbcDAmFFcmjr/cAlNiiz8AhKNGFFzGgchzbFiAo/Asuh6i86ICDABRvXScwIm5nyYtTSZDV/qAwkC7Jp7phIqFWDLt2Yk8H9CUuukjGx/Cbh0WQFrzR3/pJoumlGK0uKwCG5iQSzrv1IxWT4ZI2e/MgJkJ7rXCtx+v/bRDPnQ+3GJ5HpmbPRDtR4bTSMbr/rpd5ftkQAZWjPAQR3+IByYUgrK6AIAHqa+n2E8Dg0QI4jyUAKTsuMIFfWvY7hjQSM85kCpQx2sfZI/bM3rArnNPvodz6uEQmpCZeXTgRV6WdhliUUW2njqAKiCcmfzs9TN1h5/Q2LIkRCcU8ECr3O1ZuiHcXtL3heIv1AzBQTkpvUnlPSfE6kF+AAl4oZzr0rkT/r7sZ3gwc4KfPHLmdKZefxbwkJJrolfORkxnY9clEuTUxGU7ePEBE5lt1jqfAWQYyMWPn7rq68mp79TVkx/WT35mGz65dtkR/dU68CvisptLuF4QqKgfEIVX/ZAARkI/5q/tIDkPpxK6dPIoqwlCoExiHKBQbkhnw6rkRRaIl/oUAkHlMgCfVFuZo9z2c48r09q1rrVgUHllk42S0hUkf9lK1NKF78MncplIQkbZDF9tzLYK9QGr9voMrFqptdLdyFOaVW73vExwFGV8RQDMjAGB7gufx6sRvEJPFQQqJpmc0vV1PMqKK8miefpyXim+3e4bbXoYG+11cflA0HMol8n3MJYg18Nvr9eQ+7Mvq2dD1teKPOba4KiQwbYAxPYmzGR8YHApgOd1hRqkAg2vw3dBoKKjTPiRJhOlFO7ALlzvi9lxk5r4G/Jj8U4qUj0InBbCskw/ElDIOKQ+HIVwIbgSf3iRV/VNNoJxSDiS+gFHq5XrS4GCQZUdgiYU7sAkE49ak1MNh+GwQibshr2hFA+2VKHU47s5WwASIYItOUqJpbHPjSAnqRoAiS1YvE4Hjhi4ECAKoZ4aoM5S9Pr9Lh5UGoNZESZ+/G5X3olJDAvv7cDbNgtOPlCgtV/xL9uzL9cPYAKIBFZn5ewjgj6nsAUKN9uc4FZwQO7DSehFLqGEEpS060fvL6JHVwLVCWW8Nxpf0bE2K64SUpBSzZafp0paG7/d6+7yHnVlHeKtfaNXHc5L2TZvvNwCON5wB/h9cAJSEG36NijVAHVC6k/oqERQ+ZEikg71cXTs834IcWCx4e1+P7tmXly40ZpE3abOAyTEmRdvnxC1al0tiAJlAVVoCXCZ5afvtADmE702Mpe9z4nrxpEI0HK/rtYEXKDg5/FdVlAFkgAaXLeWIn3Kg5STopG5uQaoQLXP57sioArk8SpRDTaBHl/KdwTxUys1CpRMAUmnYKlH8E7XSo0CJVPAlGNeD3Dk/h+kuJbHTdHMVwAAAABJRU5ErkJggg==;" parent="W0iHSewVSvGhZV9dLP-F-3" vertex="1">
          <mxGeometry x="66" y="269" width="63.86" height="30" as="geometry" />
        </mxCell>
        <mxCell id="J64CTBNtRXwiaGT3BZes-36" value="" style="sketch=0;outlineConnect=0;fontColor=#232F3E;gradientColor=none;fillColor=#4D27AA;strokeColor=none;dashed=0;verticalLabelPosition=bottom;verticalAlign=top;align=center;html=1;fontSize=12;fontStyle=0;aspect=fixed;pointerEvents=1;shape=mxgraph.aws4.network_load_balancer;" vertex="1" parent="W0iHSewVSvGhZV9dLP-F-3">
          <mxGeometry x="69" y="159.5" width="44" height="44" as="geometry" />
        </mxCell>
        <mxCell id="J64CTBNtRXwiaGT3BZes-48" value="" style="group" vertex="1" connectable="0" parent="W0iHSewVSvGhZV9dLP-F-3">
          <mxGeometry x="143" y="128.5" width="143" height="31" as="geometry" />
        </mxCell>
        <mxCell id="J64CTBNtRXwiaGT3BZes-44" value="&lt;div align=&quot;right&quot;&gt;app A&lt;br&gt;&lt;/div&gt;" style="rounded=0;whiteSpace=wrap;html=1;strokeColor=#D45B07;glass=0;sketch=1;shadow=0;" vertex="1" parent="J64CTBNtRXwiaGT3BZes-48">
          <mxGeometry x="46" width="97" height="30" as="geometry" />
        </mxCell>
        <mxCell id="J64CTBNtRXwiaGT3BZes-45" value="" style="sketch=0;outlineConnect=0;fontColor=#232F3E;gradientColor=none;fillColor=#D45B07;strokeColor=none;dashed=0;verticalLabelPosition=bottom;verticalAlign=top;align=center;html=1;fontSize=12;fontStyle=0;aspect=fixed;pointerEvents=1;shape=mxgraph.aws4.container_1;rounded=0;" vertex="1" parent="J64CTBNtRXwiaGT3BZes-48">
          <mxGeometry width="48" height="31" as="geometry" />
        </mxCell>
        <mxCell id="J64CTBNtRXwiaGT3BZes-65" value="" style="group" vertex="1" connectable="0" parent="W0iHSewVSvGhZV9dLP-F-3">
          <mxGeometry x="143" y="179" width="160" height="130" as="geometry" />
        </mxCell>
        <mxCell id="J64CTBNtRXwiaGT3BZes-66" value="app B" style="rounded=0;whiteSpace=wrap;html=1;strokeColor=#D45B07;glass=0;sketch=1;shadow=0;" vertex="1" parent="J64CTBNtRXwiaGT3BZes-65">
          <mxGeometry x="46" width="97" height="30" as="geometry" />
        </mxCell>
        <mxCell id="J64CTBNtRXwiaGT3BZes-67" value="" style="sketch=0;outlineConnect=0;fontColor=#232F3E;gradientColor=none;fillColor=#D45B07;strokeColor=none;dashed=0;verticalLabelPosition=bottom;verticalAlign=top;align=center;html=1;fontSize=12;fontStyle=0;aspect=fixed;pointerEvents=1;shape=mxgraph.aws4.container_1;rounded=0;" vertex="1" parent="J64CTBNtRXwiaGT3BZes-65">
          <mxGeometry width="48" height="31" as="geometry" />
        </mxCell>
        <mxCell id="J64CTBNtRXwiaGT3BZes-55" style="edgeStyle=orthogonalEdgeStyle;rounded=0;orthogonalLoop=1;jettySize=auto;html=1;sketch=1;" edge="1" parent="W0iHSewVSvGhZV9dLP-F-3" source="J64CTBNtRXwiaGT3BZes-36" target="J64CTBNtRXwiaGT3BZes-45">
          <mxGeometry relative="1" as="geometry">
            <Array as="points">
              <mxPoint x="91" y="144" />
            </Array>
          </mxGeometry>
        </mxCell>
        <mxCell id="J64CTBNtRXwiaGT3BZes-69" value="" style="group" vertex="1" connectable="0" parent="W0iHSewVSvGhZV9dLP-F-3">
          <mxGeometry x="143" y="227" width="143" height="31" as="geometry" />
        </mxCell>
        <mxCell id="J64CTBNtRXwiaGT3BZes-70" value="app C" style="rounded=0;whiteSpace=wrap;html=1;strokeColor=#D45B07;glass=0;sketch=1;shadow=0;" vertex="1" parent="J64CTBNtRXwiaGT3BZes-69">
          <mxGeometry x="46" width="97" height="30" as="geometry" />
        </mxCell>
        <mxCell id="J64CTBNtRXwiaGT3BZes-71" value="" style="sketch=0;outlineConnect=0;fontColor=#232F3E;gradientColor=none;fillColor=#D45B07;strokeColor=none;dashed=0;verticalLabelPosition=bottom;verticalAlign=top;align=center;html=1;fontSize=12;fontStyle=0;aspect=fixed;pointerEvents=1;shape=mxgraph.aws4.container_1;rounded=0;" vertex="1" parent="J64CTBNtRXwiaGT3BZes-69">
          <mxGeometry width="48" height="31" as="geometry" />
        </mxCell>
        <mxCell id="J64CTBNtRXwiaGT3BZes-73" value="" style="verticalLabelPosition=bottom;verticalAlign=top;html=1;shape=mxgraph.basic.x;rounded=0;shadow=0;glass=0;sketch=0;strokeColor=#CC0000;fillColor=#FF0000;gradientColor=none;" vertex="1" parent="J64CTBNtRXwiaGT3BZes-69">
          <mxGeometry x="115" y="5.5" width="20" height="20" as="geometry" />
        </mxCell>
        <mxCell id="J64CTBNtRXwiaGT3BZes-72" style="edgeStyle=orthogonalEdgeStyle;rounded=0;sketch=1;orthogonalLoop=1;jettySize=auto;html=1;exitX=1;exitY=0.5;exitDx=0;exitDy=0;entryX=1;entryY=0.5;entryDx=0;entryDy=0;endArrow=classic;endFill=1;" edge="1" parent="W0iHSewVSvGhZV9dLP-F-3" source="J64CTBNtRXwiaGT3BZes-44" target="J64CTBNtRXwiaGT3BZes-70">
          <mxGeometry relative="1" as="geometry">
            <Array as="points">
              <mxPoint x="301" y="143" />
              <mxPoint x="301" y="242" />
            </Array>
          </mxGeometry>
        </mxCell>
        <mxCell id="J64CTBNtRXwiaGT3BZes-61" style="edgeStyle=orthogonalEdgeStyle;rounded=0;sketch=1;orthogonalLoop=1;jettySize=auto;html=1;endArrow=classic;endFill=1;" edge="1" parent="1" source="W0iHSewVSvGhZV9dLP-F-1" target="J64CTBNtRXwiaGT3BZes-36">
          <mxGeometry relative="1" as="geometry" />
        </mxCell>
        <mxCell id="W0iHSewVSvGhZV9dLP-F-2" value="AWS Cloud" style="points=[[0,0],[0.25,0],[0.5,0],[0.75,0],[1,0],[1,0.25],[1,0.5],[1,0.75],[1,1],[0.75,1],[0.5,1],[0.25,1],[0,1],[0,0.75],[0,0.5],[0,0.25]];outlineConnect=0;gradientColor=none;html=1;whiteSpace=wrap;fontSize=12;fontStyle=0;container=1;pointerEvents=0;collapsible=0;recursiveResize=0;shape=mxgraph.aws4.group;grIcon=mxgraph.aws4.group_aws_cloud_alt;strokeColor=#232F3E;fillColor=none;verticalAlign=top;align=left;spacingLeft=30;fontColor=#232F3E;dashed=0;" parent="1" vertex="1">
          <mxGeometry x="603" y="441" width="344" height="360" as="geometry" />
        </mxCell>
        <mxCell id="W0iHSewVSvGhZV9dLP-F-13" value="Amazon EKS Cloud" style="fillColor=none;strokeColor=#5A6C86;dashed=1;verticalAlign=top;fontStyle=1;fontColor=#5A6C86;" parent="W0iHSewVSvGhZV9dLP-F-2" vertex="1">
          <mxGeometry x="20" y="40" width="311" height="290" as="geometry" />
        </mxCell>
        <mxCell id="W0iHSewVSvGhZV9dLP-F-14" value="" style="sketch=0;points=[[0,0,0],[0.25,0,0],[0.5,0,0],[0.75,0,0],[1,0,0],[0,1,0],[0.25,1,0],[0.5,1,0],[0.75,1,0],[1,1,0],[0,0.25,0],[0,0.5,0],[0,0.75,0],[1,0.25,0],[1,0.5,0],[1,0.75,0]];outlineConnect=0;fontColor=#232F3E;gradientColor=#F78E04;gradientDirection=north;fillColor=#D05C17;strokeColor=#ffffff;dashed=0;verticalLabelPosition=bottom;verticalAlign=top;align=center;html=1;fontSize=12;fontStyle=0;aspect=fixed;shape=mxgraph.aws4.resourceIcon;resIcon=mxgraph.aws4.eks_cloud;" parent="W0iHSewVSvGhZV9dLP-F-2" vertex="1">
          <mxGeometry x="20" y="41" width="39" height="39" as="geometry" />
        </mxCell>
        <mxCell id="W0iHSewVSvGhZV9dLP-F-15" value="Workload Cluster" style="fillColor=#EFF0F3;strokeColor=none;dashed=0;verticalAlign=top;fontStyle=1;fontColor=#232F3D;" parent="W0iHSewVSvGhZV9dLP-F-2" vertex="1">
          <mxGeometry x="59" y="90" width="257" height="220" as="geometry" />
        </mxCell>
        <mxCell id="W0iHSewVSvGhZV9dLP-F-16" value="" style="shape=image;verticalLabelPosition=bottom;labelBackgroundColor=default;verticalAlign=top;aspect=fixed;imageAspect=0;image=data:image/png,iVBORw0KGgoAAAANSUhEUgAAAJUAAABGCAYAAADFCNbOAAAMbWlDQ1BJQ0MgUHJvZmlsZQAASImVVwdYU8kWnluSkJDQAghICb0jUgNICaEFkF4EGyEJJJQYE4KKvSwquHYRxYquiii2lWYBsSuLYu+LBRVlXdTFhsqbkICu+8r3zvfNvX/OnPlPuTO59wCg+YErkeShWgDkiwukCeHBjDFp6QzSU4ADHaAPSIDK5ckkrLi4aABl8P53eXcDIIr7VWcF1z/n/6vo8AUyHgDIOIgz+TJePsTNAOAbeBJpAQBEhd5ySoFEgedArCuFAUK8WoGzlXiXAmcq8dEBm6QENsSXAVCjcrnSbAA07kE9o5CXDXk0PkPsKuaLxABoOkEcwBNy+RArYnfKz5+kwOUQ20F7CcQwHsDM/I4z+2/8mUP8XG72EFbmNSBqISKZJI877f8szf+W/Dz5oA8bOKhCaUSCIn9Yw1u5k6IUmApxtzgzJlZRa4g/iPjKugOAUoTyiGSlPWrMk7Fh/eAzB6grnxsSBbExxGHivJholT4zSxTGgRjuFnSqqICTBLEBxIsEstBElc0W6aQElS+0NkvKZqn057jSAb8KXw/kucksFf8boYCj4sc0ioRJqRBTILYqFKXEQKwBsYssNzFKZTOqSMiOGbSRyhMU8VtBnCAQhwcr+bHCLGlYgsq+JF82mC+2RSjixKjwwQJhUoSyPtgpHncgfpgLdlkgZiUP8ghkY6IHc+ELQkKVuWPPBeLkRBXPB0lBcIJyLU6R5MWp7HELQV64Qm8BsYesMFG1Fk8pgJtTyY9nSQrikpRx4kU53Mg4ZTz4chAN2CAEMIAcjkwwCeQAUVt3XTf8pZwJA1wgBdlAAJxVmsEVqQMzYnhNBEXgD4gEQDa0LnhgVgAKof7LkFZ5dQZZA7OFAytywVOI80EUyIO/5QOrxEPeUsATqBH9wzsXDh6MNw8Oxfy/1w9qv2lYUBOt0sgHPTI0By2JocQQYgQxjGiPG+EBuB8eDa9BcLjhTNxnMI9v9oSnhHbCI8J1Qgfh9kTRPOkPUY4GHZA/TFWLzO9rgdtATk88GPeH7JAZ18eNgDPuAf2w8EDo2RNq2aq4FVVh/MD9twy+exoqO7IrGSUPIweR7X5cqeGg4TnEoqj19/VRxpo5VG/20MyP/tnfVZ8P71E/WmKLsEPYWewEdh47itUBBtaE1WOt2DEFHtpdTwZ216C3hIF4ciGP6B/+Bp+sopIy12rXLtfPyrkCwdQCxcFjT5JMk4qyhQUMFnw7CBgcMc/FieHm6uYGgOJdo/z7ehs/8A5B9Fu/6eb/DoB/U39//5FvusgmAA54w+Pf8E1nxwRAWx2Acw08ubRQqcMVFwL8l9CEJ80QmAJLYAfzcQNewA8EgVAQCWJBEkgDE2D0QrjPpWAKmAHmgmJQCpaDNWA92Ay2gV1gLzgI6sBRcAKcARfBZXAd3IW7pxO8BD3gHehDEISE0BA6YoiYIdaII+KGMJEAJBSJRhKQNCQDyUbEiByZgcxHSpGVyHpkK1KFHEAakBPIeaQduY08RLqQN8gnFEOpqC5qgtqgI1AmykKj0CR0PJqNTkaL0AXoUrQcrUT3oLXoCfQieh3tQF+ivRjA1DF9zBxzxpgYG4vF0rEsTIrNwkqwMqwSq8Ea4XO+inVg3dhHnIjTcQbuDHdwBJ6M8/DJ+Cx8Cb4e34XX4qfwq/hDvAf/SqARjAmOBF8ChzCGkE2YQigmlBF2EA4TTsOz1El4RyQS9Ym2RG94FtOIOcTpxCXEjcR9xGZiO/ExsZdEIhmSHEn+pFgSl1RAKiatI+0hNZGukDpJH9TU1czU3NTC1NLVxGrz1MrUdqsdV7ui9kytj6xFtib7kmPJfPI08jLydnIj+RK5k9xH0abYUvwpSZQcylxKOaWGcppyj/JWXV3dQt1HPV5dpD5HvVx9v/o59YfqH6k6VAcqmzqOKqcupe6kNlNvU9/SaDQbWhAtnVZAW0qrop2kPaB90KBruGhwNPgaszUqNGo1rmi80iRrWmuyNCdoFmmWaR7SvKTZrUXWstFia3G1ZmlVaDVo3dTq1aZrj9SO1c7XXqK9W/u89nMdko6NTqgOX2eBzjadkzqP6Rjdks6m8+jz6dvpp+mdukRdW12Obo5uqe5e3TbdHj0dPQ+9FL2pehV6x/Q69DF9G32Ofp7+Mv2D+jf0Pw0zGcYaJhi2eFjNsCvD3hsMNwgyEBiUGOwzuG7wyZBhGGqYa7jCsM7wvhFu5GAUbzTFaJPRaaPu4brD/YbzhpcMPzj8jjFq7GCcYDzdeJtxq3GvialJuInEZJ3JSZNuU33TINMc09Wmx027zOhmAWYis9VmTWYvGHoMFiOPUc44xegxNzaPMJebbzVvM++zsLVItphnsc/iviXFkmmZZbnassWyx8rMarTVDKtqqzvWZGumtdB6rfVZ6/c2tjapNgtt6mye2xrYcmyLbKtt79nR7ALtJttV2l2zJ9oz7XPtN9pfdkAdPB2EDhUOlxxRRy9HkeNGx3YngpOPk9ip0ummM9WZ5VzoXO380EXfJdplnkudy6sRViPSR6wYcXbEV1dP1zzX7a53R+qMjBw5b2TjyDduDm48twq3a+409zD32e717q89HD0EHps8bnnSPUd7LvRs8fzi5e0l9arx6vK28s7w3uB9k6nLjGMuYZ7zIfgE+8z2Oerz0dfLt8D3oO+ffs5+uX67/Z6Psh0lGLV91GN/C3+u/1b/jgBGQEbAloCOQPNAbmBl4KMgyyB+0I6gZyx7Vg5rD+tVsGuwNPhw8Hu2L3smuzkECwkPKQlpC9UJTQ5dH/ogzCIsO6w6rCfcM3x6eHMEISIqYkXETY4Jh8ep4vREekfOjDwVRY1KjFof9SjaIVoa3TgaHR05etXoezHWMeKYulgQy4ldFXs/zjZuctyReGJ8XHxF/NOEkQkzEs4m0hMnJu5OfJcUnLQs6W6yXbI8uSVFM2VcSlXK+9SQ1JWpHWNGjJk55mKaUZoorT6dlJ6SviO9d2zo2DVjO8d5jised2O87fip489PMJqQN+HYRM2J3ImHMggZqRm7Mz5zY7mV3N5MTuaGzB4em7eW95IfxF/N7xL4C1YKnmX5Z63Mep7tn70qu0sYKCwTdovYovWi1zkROZtz3ufG5u7M7c9LzduXr5afkd8g1hHnik9NMp00dVK7xFFSLOmY7Dt5zeQeaZR0hwyRjZfVF+jCj/pWuZ38J/nDwoDCisIPU1KmHJqqPVU8tXWaw7TF054VhRX9Mh2fzpveMsN8xtwZD2eyZm6dhczKnNUy23L2gtmdc8Ln7JpLmZs797d5rvNWzvtrfur8xgUmC+YsePxT+E/VxRrF0uKbC/0Wbl6ELxItalvsvnjd4q8l/JILpa6lZaWfl/CWXPh55M/lP/cvzVratsxr2ablxOXi5TdWBK7YtVJ7ZdHKx6tGr6pdzVhdsvqvNRPXnC/zKNu8lrJWvrajPLq8fp3VuuXrPq8Xrr9eEVyxb4PxhsUb3m/kb7yyKWhTzWaTzaWbP20Rbbm1NXxrbaVNZdk24rbCbU+3p2w/+wvzl6odRjtKd3zZKd7ZsSth16kq76qq3ca7l1Wj1fLqrj3j9lzeG7K3vsa5Zus+/X2l+8F++f4XBzIO3DgYdbDlEPNQza/Wv244TD9cUovUTqvtqRPWddSn1bc3RDa0NPo1Hj7icmTnUfOjFcf0ji07Tjm+4Hh/U1FTb7OkuftE9onHLRNb7p4cc/LaqfhTbaejTp87E3bm5FnW2aZz/ueOnvc933CBeaHuotfF2lbP1sO/ef52uM2rrfaS96X6yz6XG9tHtR+/EnjlxNWQq2euca5dvB5zvf1G8o1bN8fd7LjFv/X8dt7t13cK7/TdnXOPcK/kvtb9sgfGDyp/t/99X4dXx7GHIQ9bHyU+uvuY9/jlE9mTz50LntKelj0ze1b13O350a6wrssvxr7ofCl52ddd/If2Hxte2b369c+gP1t7xvR0vpa+7n+z5K3h251/efzV0hvX++Bd/ru+9yUfDD/s+sj8ePZT6qdnfVM+kz6Xf7H/0vg16uu9/vz+fglXyh34FMDgQLOyAHizEwBaGgB02LdRxip7wQFBlP3rAAL/CSv7xQHxAqAGfr/Hd8Ovm5sA7N8O2y/Irwl71TgaAEk+AHV3HxoqkWW5uym5qLBPITzo738LezbSKgC+LO/v76vs7/+yDQYLe8dmsbIHVQgR9gxbOF8y8zPBvxFlf/pdjj/egSICD/Dj/V/yp5DIG6G/zAAAAHplWElmTU0AKgAAAAgABAEGAAMAAAABAAIAAAESAAMAAAABAAEAAAEoAAMAAAABAAIAAIdpAAQAAAABAAAAPgAAAAAAA5KGAAcAAAASAAAAaKACAAQAAAABAAAAlaADAAQAAAABAAAARgAAAABBU0NJSQAAAFNjcmVlbnNob3RhqjecAAAC7mlUWHRYTUw6Y29tLmFkb2JlLnhtcAAAAAAAPHg6eG1wbWV0YSB4bWxuczp4PSJhZG9iZTpuczptZXRhLyIgeDp4bXB0az0iWE1QIENvcmUgNi4wLjAiPgogICA8cmRmOlJERiB4bWxuczpyZGY9Imh0dHA6Ly93d3cudzMub3JnLzE5OTkvMDIvMjItcmRmLXN5bnRheC1ucyMiPgogICAgICA8cmRmOkRlc2NyaXB0aW9uIHJkZjphYm91dD0iIgogICAgICAgICAgICB4bWxuczp0aWZmPSJodHRwOi8vbnMuYWRvYmUuY29tL3RpZmYvMS4wLyIKICAgICAgICAgICAgeG1sbnM6ZXhpZj0iaHR0cDovL25zLmFkb2JlLmNvbS9leGlmLzEuMC8iPgogICAgICAgICA8dGlmZjpDb21wcmVzc2lvbj4xPC90aWZmOkNvbXByZXNzaW9uPgogICAgICAgICA8dGlmZjpSZXNvbHV0aW9uVW5pdD4yPC90aWZmOlJlc29sdXRpb25Vbml0PgogICAgICAgICA8dGlmZjpQaG90b21ldHJpY0ludGVycHJldGF0aW9uPjI8L3RpZmY6UGhvdG9tZXRyaWNJbnRlcnByZXRhdGlvbj4KICAgICAgICAgPHRpZmY6T3JpZW50YXRpb24+MTwvdGlmZjpPcmllbnRhdGlvbj4KICAgICAgICAgPGV4aWY6UGl4ZWxYRGltZW5zaW9uPjE0OTwvZXhpZjpQaXhlbFhEaW1lbnNpb24+CiAgICAgICAgIDxleGlmOlVzZXJDb21tZW50PlNjcmVlbnNob3Q8L2V4aWY6VXNlckNvbW1lbnQ+CiAgICAgICAgIDxleGlmOlBpeGVsWURpbWVuc2lvbj43MDwvZXhpZjpQaXhlbFlEaW1lbnNpb24+CiAgICAgIDwvcmRmOkRlc2NyaXB0aW9uPgogICA8L3JkZjpSREY+CjwveDp4bXBtZXRhPgoANTInAAAZq0lEQVR4Ae2d53KbSXaGmyQCCSYwZ1GiRMVJmlrvVK3tP74CX4Cr/N8X5H++E1e5XOuq3S3PendmVtIokRIl5pxAEkx+n9NoECQhEiCCKAmtIfDhCx1Ov31yf1P3z//678euVmoUKAcF6pyLNtS7SEtzvBzV1eqoUcAoEInUu/pq0aJOKK6VL4MCVQOVc0KVAasmbT93aEWqMcD6+joXjTa44+Njd3BwqO86O65G27U2qk+BqoCqTrKvtUW6mzjVzs6+S6cPM+Cq/oBrLVaeAlUDVTQScZ2dCXd0eOzevl8RqI6MW9V0rcpPcrVbqAqoGBSib6C3XRyr0S2ubLnd3X13rH91XtGq9rhr7VWQAlVT1A+Pj1xHe7O7NdLl+gUudCxhqlY+QwpUDVQAKBppcJ0dLe7OzR7X3BzzBmFN/n12sKoeqEQ6rMDW5kbjVh1tLS4mblVzX312mKqe8zOQLhqNuJ6uVjc82O7a25pcjVEFynw+31XlVCjrDQ11rq21yY0Od7luiULcDbXyeVGguqAS7QBRY2PM3brR7Xp6Wl29ApA1YNVAVQIFvLkXVdDxhjjVQF+7i8cjxr1KqLT26DWjQFU5lY1d0g6FHSUdEXj3dp+5F5CCko618hlQoPqgyiHaUH/SPRzvd62tjRkRWENVDnk+2cOPCqqO9oRxq/6etkzA+ZOlY63jORT4qKBqkJLekUzIGdrrEoloTrdqh58yBSoKqkKEWXMi7kYGO1x3slVKe7RmCX7KaMr0vaKgwgOFuwDf1Idc5/FYxPVK/A30t8l/Ff/QbZ8Bqb+cIVQMVDg6CRonEjEXlxe9XuDKZ901NDS4ZFvC3ZQl2KmAcw1Vnz74KgKq4B7o7EjIydnlmqQvkeKSTxxyL76q8bE+19vXVnOGfvqYqkzsz4u8ejk3k278Vq9rjMckBkWtfKxKp3GG9ssROiwXQ0d700d1hgL8D3TzWk03kiD37zp1riKcqr6+XikuCTc8kHR9CsWwbeeiwv2NUtJvKtfqttJiEJsXYPCiqkq6xmJATKs7tgjow3UsYdE2iK4RpRNhRXPuupSyZn6yyuUsFygIw3Q6nJtNjdHC2KEeHh7odA/vDrjXbxfd3t6Bc4dHqrE6xPKbMyIuglGhciROQMrzkfrA8XXgXuAG8DSKpmTQYi3Tv9TOntvc2rs2ef9lBRWUh+s0KWCM4k368FZqz5KGbaYu+ACQJO7xzMhgp9vc3HOpVNqLzQueK8clJosV393Z7Nhci/63r8la30hpsnbdfvogrz5YrrZzuQwijZIPxNxHP8mc/e7RkBsa6HBb27vu11fz7m+/zrjtbXYq8Xx1FqJ1NM9HeUGlBsg6YGJGRzpdT3erS71P52n2/CkmlszQjmSzAfLN1JJ23uhZ6OPpfP6hMpxhElgIzbJSf/PdqLsjHZDfKS2Gn56+d89fz7mV5e38s1xi+4yZcgKEDKDs7PmBI5p7ulrcg/E+9/jrUVnLCaNPoinmVla33eTUvnH4UK9V8xE+ygqqwJqHlIDX19OuidKqL3KELcoMHZYztFPg2trec/v7Wn1VIExM/jLavX9nwDVIhm9s7biZhXX39t0yMkc9qEQv6lxXV8I7fiXSaGN1LeVW1raNSx8h/XOLupGQFOhSHhqJjqZaqK998vMllfCICL8OpWygYrWhMDK4e3IPkNXJIIvdLcPkotwPDrS71XUReDUlOlViQj35Q81MB/0FUHAqFgNzxHelpop6EfXff33DdSVJWHTu6atZ99OTae02WnVHR6F3mb7q574247ITaWc3bf2Fu6e0l5Lz2ltyLUrZQIUym5Di2NfbJhHS7xJNca/gFjkjKMpJsfWxGz1udm7TVi6UMlWhGiSz/mr2jDvpx+l5LWsP6mRlElRH/+wRtxGU3ar0uIk3SwZsmQun2mPhrun6u9lVN/R+2XVLFB4dOvdmatnNzK27wyoaNqc6duZHeUAl2h9qk2h3R7O7f7vfgsSs+AOdK7aYCJVf696dfvfqzaKbkCUIooqvqdiWi7/fAz3TtzMdNExSZR5OF55DvHEfrgHyyygRcw8w5OCHynBL8K1zW7LyXryeN2uvVWGt/f0jt7S0ZVz9UBVm27XaTj5Cm9bNIvp6UkPhR2UBFWICr3h/f7sbG+2Wz8lXawM5M4BCugZhe7raLND8sqvZLa9suyOZ99epMHkoziYeIQCCni8Vxn0CitPuCO4x0apnUBdyfUzhPBZeePfEsURgAAJHB1il6ztud2/fETflN68R2Lcd3779fJ+miqjx8J17D20Etwn9LrWUB1TSQZJKYRnuV7aBFEhAUUqB8DF8XUOdtkcQH8zhYVo6hl/ZpdRdjmeZGHS/RFPUxHyTxH405p2QTArcg0lP7cotsp02iwwuQqnTszh60TlbZMigcMf0bABoa3OT3Cptbi8tPUlgwV+3JT8UHArxBuBaWmIu2ZowfyCI25RbYUUKflptnMOEaEnEgqgGFi7GU7wRf1y93Uud6Gjbsna35MLZU7/xz5VSSgIVAxCebKAj8pkMilNBYBRdX66GelYsdQ8S5pHSjxhk4F7HyLCDUkZd5LO5owBQOB/ZCXRLbpNhAb+nu8XcKPFYVMqyRJSAtLSyKT1nzb2dXnGz8+tmyaIiAJ7uzhb3m29vuBE9SygLIDFmLIJ+xT9/iN9yj+4NmvK9rFcEBD8Ujs4mAfm28s++fThkbUKnFxNz7k9/njSOdSxt3erSGJkHMkTaFfoaUnTj5lCXLNyk61L7+BIBJAr/4vKmm1I/J6Sbzc2vWV/9uy6KJFTm9pJAZb0SJRB37I7Bg441cqpcFQN6Dq/xIDFBAXZ1bceI3ADxP1I5EidoE4cZH+t1j78adTfkguA3YCKKUIfmrVlm9Q8PddiCmF9aFyjm3F9+eWdinAlv0RtwANT4WL+AEctyKQDC9jW4CZYfr12aSay5peUt4zYH+3BI7fJONimk1W0GDZwRBy2cM5CGejgmPDaqdh7eG3D3lbbdhXM3IU+87iU7xPqqMfXJmTqq+u6OrcuJOu2ePJ+1hXBVMpcIKu/hZfJHRERYOey9XAW9AmcoYnBCztC0PNsfozAiwID+c0Or/bePb2kC+i1lB6a8s3sgRXnHRIeJJ4ECB3C7ANIp4yUei9nE76TkCpB4oTDp9qdFKQz49ckBf3bN62sco0sJY3Y+iN4WibJWtQGo4Jz1AFqF25gC+tEh8H0tjvb4qxEDDmDifsC6Y5zfi0bEMH/tLSeABqg4n69ibF0ZVKwGCEq+1JBWLKEDBsf5chZzhopT4cfZDs7QMrdxeX99kNnvV+ySaBo2x6PmLiM6Vt3cwobExo5xLRYXnAinJN5u1AJ8d2+nVtyudKWNjV33enLRwGhZr7ofPQtErKxvi6Nt+fCQHL9LOp5b3DQgZPuZM37em2Ml80UdgBUxOabg/Ff3B9WXLoHyyIC0srplzlUcyzAAXkOAOMbZjLF1WxEFdLQFccfXUjsOBSzUQeostFwZVFCA1YHC+O2DYSmeChmoFNP4RZ0MYwCopMUMDLSJ4DKdzRl60ZOVuEYox5ku0iFwx8VBUXTx9j99Mev+63+ei1Ntu7QUdCa1U0bLt4+G3e9+e8cWW4RERCUgNmsC6xVOAYD/+fvnJsr+8Yfb7h9+GLcIBGN+J93mj3+ekB65kH05HPoN+lgubQ1XfJxZxXC1OnW2TdIDvatfOht61UH62AD6418n3ZNfZ92SwIUro0eAgpN9/43CPgIW95It8v1XN9z80saVdNkrg+pQ/Li1VVxqqN0yEggZVKLg7wKw+L/m5zbcMnE4rc5cAlei3dN1+vbi0mewSs0QEQKw6DY2/arGkLBXT+pBzj99MWciqFfxT+YdZZhsAnSlw8NDyy7Y3z+QlXdg5xBLjAug4iHf2kqbuLfz/pLFVU/36/wvvOq8rwLH6GBfh3FU7iLw/ET6Et76aRkQ6H2I9GBVshp+93fjri0iq1SGAwZDd2erW7uCLnslUIUJJQY1LksEr3CpboTz5PFnGHiT2DI7blB4J98tafK0Hs+s0A89X57ztFdn5r3FImlb/8GBSPH5/psRNzO7bpx0Z0cZDbqG2PpZAemEdBXoxWsp1zd3BKBg9lNnDqPhWPcxrtN/GTroOo3CzS4qFtmQ6OsTmJulczWIa1EfqsOLiXlxyXUTg0QuqBJgY6W+koWIWDeXgxYPenKX9ME34mYW/vEq20VNZ69dEVR1Jn8Jydwc7jY9IltjBQ5QOnu75QyVbvVK7HpJzlAmt5rlWGAgRAJYCDaTV4/Fd48Igo6ZsFlNGP6iLXGvbeki67pvfgl9SDlZ4lCY+0w6hU8Dlf3yH1nAZABk13UMKP1TOTd/4BAAYY2jJ2GJ8yztb8sHtSjPO8YO7WS6YdxqT/4wOBLj67Wkyqi5HJLa5IsFqZ5/oLX8p68EKiwQzNMh6Trs22PSK1loj2GZ2Xt7TXlOb0zUaJ6NaJVs29ddJ5F2bJ7sibdLsgDn3YO7g7aqMeUH5PTtEejx+ZBhMLewZnrTzPyGm1aczoLimkXed5o7PVkQnR2AXfBXAUUxBbAwH00yELBWKWktwG2J3v0Dnxd2tk6AyD2ISMZJiUmEYpiYqM/ttF29+KMoUNFhOkRnSRDDoQZ7R4mtdIG26Cf4Z17JctqTQ5FXPiIeK12AAoSnvJtedf/9h5fSkbbcd1JwsXqJ2+E/Qq9EbPQJYONjadNXpudWTWz/8mxaiYe75hytbJ8Rkd4dEdpBf8Izn8HLaXKJfAwNPfCAVZoZJwsZlQbyFokpVxSo4JvmJxERiawPaYWec3ae7nLZfjG4NvlReFMMSiRiiOzMahYmiWzUSXme0ZGw+PCh9St3DH+a10ci5qMynSR5ZJYgPqBDiaAnshTx/xQ2S8VOZaAEXN0vggw+bM5s72W4Jfc70wxjwyjCWKAgpgFjqMNOFvhRFKhoDi6FYh6cnYCsKkWD9t7kZulWnW5SYgjLqbAJKq2HJyPUDKgf6HMz4pQLMrlfTSxa6INwC+8z7ZCHnbgef4ggwMaE4Wycl78JK5HcJ/p9Fjanf5+0Wkzvecpzpn0zCngWjkNYJuhYtJNbO/3jWpPig2E+LW9LjloMC10uqhQMKhBL5bzz4JYyEWD7OMvOk6ao9gu+OYyrTcojgEZRtmR/TfDpySi4yiJu9NF9FhRe6ZiN24NrQa4C/mLPZ+RBVxanTHkMirtydo6N9lhIhrfa0OdO6aHca6D6QOtMMP+s6Mvo/oF7853GoUkwe1l+KHQo5gcdC0sQ2i0uN2hRoIxmntY3yjhObFw3YedTWnUQZEYPzPYnX4N5zhUMKjqH0pZsbTZdgtdX+xJ6l6f2CpzC8wxXIDCKteIzQyvQ0KkqfVYrr+t+oN0+I2qbyZ5b3HC/PJ12LycXLESTUhhmQdYeyvmyRCMbORqbus2sZ9LIaiBjAIqFhZBLPRYt+lk05t0AXrH3QWjAVkghYI2fCy88KTG4QhB9eM5vKgA+M79qi1F7xq06xFx7j17uq02/BJ5xQWAtpsRRV5R5S0pNgU1nu1cwqDCJ29ri8suQjdCR4VLZevIfqDeQojBy5K/i7FmATUztgQKkc7KuyLUqlOBn6yr8tx8FHKqvt9XdVR47I4NbY/HhnU4RJ9MEIBqZTFvhmfFbOzihMiULKJ3CAAhGAHeQQXBrpMetrKTMJbGnycUyM2el2gzPhrrOfgMA+sBiA9xk0TZLDKPvPZTFyvloRIaOVAcAyCL9+sGgIgAjdh8hRHxa81owLBAcusXSt2BQgQzSPW7D0oV6EH1pYTmrXEaIS+vJvUH9QOzekXh5pq1Jb/hfkoiIwf+Te2v5jv0IsN4IsgYx2BhvV/R/wILES/L0o7wzqbhb7iqTAbHHvYAMBR1f0VnRB2B2FZDGMrO0GMUBH4kbogcRllqQb2lO+huGydmSj64AAD0IX9pzOYt591ezjAnE9k2BFT8VO3JWN1M2h7y/4r6ybG/JqmaOCQfNy9/2Sn43kgG9TqULRZSCQIXyFo1GLW8IawcPN8TLLWG1gSOOWcmsXJAevMgYa3YuIpYaHlZFHOfWd9HK4F5ERKdicGwamOheMqLDGSpZGBP/+xMU9DWJBdwbJOaR74XnmVXNCgdEcAccw1ircPhNTfCUcsrZRgXAGIP1Vh/rCi7D6XDRoM+QjzYqMUs6Smp3V8CYdz/+dUo60ra5Ixgjz140WubAPOivF8w6bZGbA0aQaIq4R/eHrH4AjliEgyUa/a4n3ArrG9vu2cs597NcIGl52ym5c2MnLvkoEFT1xpbJa4I953N2BiBAfAYMmNbUQZLVLL6ls7t7aSMwpitpLaxMY+h8F9Fz7oVTouPMjPWYUnq4i9e6eAJk6aOZJlcronpRduEU+soSFIJjuf0sHQqg/NPf35cakDSREY8mLf3ZRBR907MAhD6yIZW9g3/8v0l5tDflWjgxLJCIc4vr2uiwaC6aeLzNnq2v9+nEcOT21g1ZbuQ/SdfRLgcAySKnn7QBvfmdJR83qLB4iTf+/k+v3J7A8cPj2wIWep2cmgJuR1ILX/fyLPMAx1zS/X9QMPunv71Xv3esDgBabCkIVDSOYkwKR0RgwDwmKAorR37vyrG2K91iO0V4Qmm0EhH4c9bFYjGj2aXMIH9VkBWLgtXBwHyAVtYU3lsRMKZkN7OuTFlVyqtNDJPkU3WZJIhrRBR5ATj5Tc+1EWBe+pVgpfFnqFogJcLdjAWH5tT0srVHagiGAAvCFoqqlk/ckgWfaRzMCKDG0QknsJRgUKhJQLlFTLLF7N3MiqWQvJd+AygRc9miY9JgXoijsMhuSlnuJgtCtAHYgBTulhJtw2Kln0w42aR4yQE4qTKAgrbDeLifvr+bWdWzcMQd41q9Eq9Nor/3SQl8aoONs8zTxNsFccYFy044kIV4VZXiQlAxfjqpubQkLjr3Xh7ltExVgAPh+AY0W9IZmAii3uTjEPsyL26Gigx+Uol2pK0CDAAFgMidhohNmRVkYBPAPOgip0DmAefPwS1932TZSHEnrnWsyWQBFFfEKzUu9KFn0kEAEuDFLH/7btX0IK6Hgignvve/f3njpt6t2B5FQlWk6EQFfiYi6FC4D4gHoptQRwiBhLqYeHScGaXwbohmU6Jtt15sgqWIQQLNAPqiJhyAcT/9nJ5Zcz9G3ljOFOemtT2LufAywhMgtMccQHfSWMjdwnlscUu4nDpC+4x5bmHTAXzqhwH4ukJPi/uu+5d/+48ckp1/mEkivsWLM7pEPONKSjSDIyG3sX44x6Ahgv9Tp3TMwLJL50zV1OtFnvcBBRbOOY4RP3BFXpjmuRiczAMqcDPOY/oyGVNS2C1YWjyqrGesXNoD8FAbcDAmFFcmjr/cAlNiiz8AhKNGFFzGgchzbFiAo/Asuh6i86ICDABRvXScwIm5nyYtTSZDV/qAwkC7Jp7phIqFWDLt2Yk8H9CUuukjGx/Cbh0WQFrzR3/pJoumlGK0uKwCG5iQSzrv1IxWT4ZI2e/MgJkJ7rXCtx+v/bRDPnQ+3GJ5HpmbPRDtR4bTSMbr/rpd5ftkQAZWjPAQR3+IByYUgrK6AIAHqa+n2E8Dg0QI4jyUAKTsuMIFfWvY7hjQSM85kCpQx2sfZI/bM3rArnNPvodz6uEQmpCZeXTgRV6WdhliUUW2njqAKiCcmfzs9TN1h5/Q2LIkRCcU8ECr3O1ZuiHcXtL3heIv1AzBQTkpvUnlPSfE6kF+AAl4oZzr0rkT/r7sZ3gwc4KfPHLmdKZefxbwkJJrolfORkxnY9clEuTUxGU7ePEBE5lt1jqfAWQYyMWPn7rq68mp79TVkx/WT35mGz65dtkR/dU68CvisptLuF4QqKgfEIVX/ZAARkI/5q/tIDkPpxK6dPIoqwlCoExiHKBQbkhnw6rkRRaIl/oUAkHlMgCfVFuZo9z2c48r09q1rrVgUHllk42S0hUkf9lK1NKF78MncplIQkbZDF9tzLYK9QGr9voMrFqptdLdyFOaVW73vExwFGV8RQDMjAGB7gufx6sRvEJPFQQqJpmc0vV1PMqKK8miefpyXim+3e4bbXoYG+11cflA0HMol8n3MJYg18Nvr9eQ+7Mvq2dD1teKPOba4KiQwbYAxPYmzGR8YHApgOd1hRqkAg2vw3dBoKKjTPiRJhOlFO7ALlzvi9lxk5r4G/Jj8U4qUj0InBbCskw/ElDIOKQ+HIVwIbgSf3iRV/VNNoJxSDiS+gFHq5XrS4GCQZUdgiYU7sAkE49ak1MNh+GwQibshr2hFA+2VKHU47s5WwASIYItOUqJpbHPjSAnqRoAiS1YvE4Hjhi4ECAKoZ4aoM5S9Pr9Lh5UGoNZESZ+/G5X3olJDAvv7cDbNgtOPlCgtV/xL9uzL9cPYAKIBFZn5ewjgj6nsAUKN9uc4FZwQO7DSehFLqGEEpS060fvL6JHVwLVCWW8Nxpf0bE2K64SUpBSzZafp0paG7/d6+7yHnVlHeKtfaNXHc5L2TZvvNwCON5wB/h9cAJSEG36NijVAHVC6k/oqERQ+ZEikg71cXTs834IcWCx4e1+P7tmXly40ZpE3abOAyTEmRdvnxC1al0tiAJlAVVoCXCZ5afvtADmE702Mpe9z4nrxpEI0HK/rtYEXKDg5/FdVlAFkgAaXLeWIn3Kg5STopG5uQaoQLXP57sioArk8SpRDTaBHl/KdwTxUys1CpRMAUmnYKlH8E7XSo0CJVPAlGNeD3Dk/h+kuJbHTdHMVwAAAABJRU5ErkJggg==;" parent="W0iHSewVSvGhZV9dLP-F-2" vertex="1">
          <mxGeometry x="66.99999999999994" y="272" width="63.86" height="30" as="geometry" />
        </mxCell>
        <mxCell id="J64CTBNtRXwiaGT3BZes-76" value="app B" style="rounded=0;whiteSpace=wrap;html=1;strokeColor=#D45B07;glass=0;sketch=1;shadow=0;" vertex="1" parent="W0iHSewVSvGhZV9dLP-F-2">
          <mxGeometry x="192.5" y="157" width="97" height="30" as="geometry" />
        </mxCell>
        <mxCell id="J64CTBNtRXwiaGT3BZes-77" value="" style="sketch=0;outlineConnect=0;fontColor=#232F3E;gradientColor=none;fillColor=#D45B07;strokeColor=none;dashed=0;verticalLabelPosition=bottom;verticalAlign=top;align=center;html=1;fontSize=12;fontStyle=0;aspect=fixed;pointerEvents=1;shape=mxgraph.aws4.container_1;rounded=0;" vertex="1" parent="W0iHSewVSvGhZV9dLP-F-2">
          <mxGeometry x="147.5" y="157" width="47" height="30.35" as="geometry" />
        </mxCell>
        <mxCell id="J64CTBNtRXwiaGT3BZes-78" value="" style="group" vertex="1" connectable="0" parent="W0iHSewVSvGhZV9dLP-F-2">
          <mxGeometry x="147" y="198" width="143" height="31" as="geometry" />
        </mxCell>
        <mxCell id="J64CTBNtRXwiaGT3BZes-79" value="app C" style="rounded=0;whiteSpace=wrap;html=1;strokeColor=#D45B07;glass=0;sketch=1;shadow=0;" vertex="1" parent="J64CTBNtRXwiaGT3BZes-78">
          <mxGeometry x="46" width="97" height="30" as="geometry" />
        </mxCell>
        <mxCell id="J64CTBNtRXwiaGT3BZes-80" value="" style="sketch=0;outlineConnect=0;fontColor=#232F3E;gradientColor=none;fillColor=#D45B07;strokeColor=none;dashed=0;verticalLabelPosition=bottom;verticalAlign=top;align=center;html=1;fontSize=12;fontStyle=0;aspect=fixed;pointerEvents=1;shape=mxgraph.aws4.container_1;rounded=0;" vertex="1" parent="J64CTBNtRXwiaGT3BZes-78">
          <mxGeometry width="48" height="31" as="geometry" />
        </mxCell>
        <mxCell id="J64CTBNtRXwiaGT3BZes-75" value="" style="group" vertex="1" connectable="0" parent="W0iHSewVSvGhZV9dLP-F-2">
          <mxGeometry x="52" y="187.35" width="160" height="130" as="geometry" />
        </mxCell>
        <mxCell id="J64CTBNtRXwiaGT3BZes-49" value="" style="sketch=0;outlineConnect=0;fontColor=#232F3E;gradientColor=none;fillColor=#4D27AA;strokeColor=none;dashed=0;verticalLabelPosition=bottom;verticalAlign=top;align=center;html=1;fontSize=12;fontStyle=0;aspect=fixed;pointerEvents=1;shape=mxgraph.aws4.network_load_balancer;" vertex="1" parent="J64CTBNtRXwiaGT3BZes-75">
          <mxGeometry x="21" y="-20" width="44" height="44" as="geometry" />
        </mxCell>
        <mxCell id="J64CTBNtRXwiaGT3BZes-86" style="edgeStyle=orthogonalEdgeStyle;rounded=0;sketch=1;orthogonalLoop=1;jettySize=auto;html=1;endArrow=classic;endFill=1;" edge="1" parent="W0iHSewVSvGhZV9dLP-F-2" source="J64CTBNtRXwiaGT3BZes-49" target="J64CTBNtRXwiaGT3BZes-80">
          <mxGeometry relative="1" as="geometry" />
        </mxCell>
        <mxCell id="W0iHSewVSvGhZV9dLP-F-22" style="edgeStyle=orthogonalEdgeStyle;rounded=0;orthogonalLoop=1;jettySize=auto;html=1;exitX=0.5;exitY=1;exitDx=0;exitDy=0;" parent="1" source="W0iHSewVSvGhZV9dLP-F-2" target="W0iHSewVSvGhZV9dLP-F-2" edge="1">
          <mxGeometry relative="1" as="geometry" />
        </mxCell>
        <mxCell id="J64CTBNtRXwiaGT3BZes-16" value="AWS Cloud" style="points=[[0,0],[0.25,0],[0.5,0],[0.75,0],[1,0],[1,0.25],[1,0.5],[1,0.75],[1,1],[0.75,1],[0.5,1],[0.25,1],[0,1],[0,0.75],[0,0.5],[0,0.25]];outlineConnect=0;gradientColor=none;html=1;whiteSpace=wrap;fontSize=12;fontStyle=0;container=1;pointerEvents=0;collapsible=0;recursiveResize=0;shape=mxgraph.aws4.group;grIcon=mxgraph.aws4.group_aws_cloud_alt;strokeColor=#232F3E;fillColor=none;verticalAlign=top;align=left;spacingLeft=30;fontColor=#232F3E;dashed=0;" vertex="1" parent="1">
          <mxGeometry x="1534" y="231" width="293" height="360" as="geometry" />
        </mxCell>
        <mxCell id="J64CTBNtRXwiaGT3BZes-17" value="Amazon EKS Cloud" style="fillColor=none;strokeColor=#5A6C86;dashed=1;verticalAlign=top;fontStyle=0;fontColor=#5A6C86;" vertex="1" parent="J64CTBNtRXwiaGT3BZes-16">
          <mxGeometry x="20" y="40" width="252" height="300" as="geometry" />
        </mxCell>
        <mxCell id="J64CTBNtRXwiaGT3BZes-18" value="" style="sketch=0;points=[[0,0,0],[0.25,0,0],[0.5,0,0],[0.75,0,0],[1,0,0],[0,1,0],[0.25,1,0],[0.5,1,0],[0.75,1,0],[1,1,0],[0,0.25,0],[0,0.5,0],[0,0.75,0],[1,0.25,0],[1,0.5,0],[1,0.75,0]];outlineConnect=0;fontColor=#232F3E;gradientColor=#F78E04;gradientDirection=north;fillColor=#D05C17;strokeColor=#ffffff;dashed=0;verticalLabelPosition=bottom;verticalAlign=top;align=center;html=1;fontSize=12;fontStyle=0;aspect=fixed;shape=mxgraph.aws4.resourceIcon;resIcon=mxgraph.aws4.eks_cloud;" vertex="1" parent="J64CTBNtRXwiaGT3BZes-16">
          <mxGeometry x="20" y="41" width="39" height="39" as="geometry" />
        </mxCell>
        <mxCell id="J64CTBNtRXwiaGT3BZes-19" value="Workload Cluster" style="fillColor=#EFF0F3;strokeColor=none;dashed=0;verticalAlign=top;fontStyle=1;fontColor=#232F3D;" vertex="1" parent="J64CTBNtRXwiaGT3BZes-16">
          <mxGeometry x="59" y="100" width="190" height="100" as="geometry" />
        </mxCell>
        <mxCell id="J64CTBNtRXwiaGT3BZes-20" value="" style="shape=image;verticalLabelPosition=bottom;labelBackgroundColor=default;verticalAlign=top;aspect=fixed;imageAspect=0;image=data:image/png,iVBORw0KGgoAAAANSUhEUgAAAJUAAABGCAYAAADFCNbOAAAMbWlDQ1BJQ0MgUHJvZmlsZQAASImVVwdYU8kWnluSkJDQAghICb0jUgNICaEFkF4EGyEJJJQYE4KKvSwquHYRxYquiii2lWYBsSuLYu+LBRVlXdTFhsqbkICu+8r3zvfNvX/OnPlPuTO59wCg+YErkeShWgDkiwukCeHBjDFp6QzSU4ADHaAPSIDK5ckkrLi4aABl8P53eXcDIIr7VWcF1z/n/6vo8AUyHgDIOIgz+TJePsTNAOAbeBJpAQBEhd5ySoFEgedArCuFAUK8WoGzlXiXAmcq8dEBm6QENsSXAVCjcrnSbAA07kE9o5CXDXk0PkPsKuaLxABoOkEcwBNy+RArYnfKz5+kwOUQ20F7CcQwHsDM/I4z+2/8mUP8XG72EFbmNSBqISKZJI877f8szf+W/Dz5oA8bOKhCaUSCIn9Yw1u5k6IUmApxtzgzJlZRa4g/iPjKugOAUoTyiGSlPWrMk7Fh/eAzB6grnxsSBbExxGHivJholT4zSxTGgRjuFnSqqICTBLEBxIsEstBElc0W6aQElS+0NkvKZqn057jSAb8KXw/kucksFf8boYCj4sc0ioRJqRBTILYqFKXEQKwBsYssNzFKZTOqSMiOGbSRyhMU8VtBnCAQhwcr+bHCLGlYgsq+JF82mC+2RSjixKjwwQJhUoSyPtgpHncgfpgLdlkgZiUP8ghkY6IHc+ELQkKVuWPPBeLkRBXPB0lBcIJyLU6R5MWp7HELQV64Qm8BsYesMFG1Fk8pgJtTyY9nSQrikpRx4kU53Mg4ZTz4chAN2CAEMIAcjkwwCeQAUVt3XTf8pZwJA1wgBdlAAJxVmsEVqQMzYnhNBEXgD4gEQDa0LnhgVgAKof7LkFZ5dQZZA7OFAytywVOI80EUyIO/5QOrxEPeUsATqBH9wzsXDh6MNw8Oxfy/1w9qv2lYUBOt0sgHPTI0By2JocQQYgQxjGiPG+EBuB8eDa9BcLjhTNxnMI9v9oSnhHbCI8J1Qgfh9kTRPOkPUY4GHZA/TFWLzO9rgdtATk88GPeH7JAZ18eNgDPuAf2w8EDo2RNq2aq4FVVh/MD9twy+exoqO7IrGSUPIweR7X5cqeGg4TnEoqj19/VRxpo5VG/20MyP/tnfVZ8P71E/WmKLsEPYWewEdh47itUBBtaE1WOt2DEFHtpdTwZ216C3hIF4ciGP6B/+Bp+sopIy12rXLtfPyrkCwdQCxcFjT5JMk4qyhQUMFnw7CBgcMc/FieHm6uYGgOJdo/z7ehs/8A5B9Fu/6eb/DoB/U39//5FvusgmAA54w+Pf8E1nxwRAWx2Acw08ubRQqcMVFwL8l9CEJ80QmAJLYAfzcQNewA8EgVAQCWJBEkgDE2D0QrjPpWAKmAHmgmJQCpaDNWA92Ay2gV1gLzgI6sBRcAKcARfBZXAd3IW7pxO8BD3gHehDEISE0BA6YoiYIdaII+KGMJEAJBSJRhKQNCQDyUbEiByZgcxHSpGVyHpkK1KFHEAakBPIeaQduY08RLqQN8gnFEOpqC5qgtqgI1AmykKj0CR0PJqNTkaL0AXoUrQcrUT3oLXoCfQieh3tQF+ivRjA1DF9zBxzxpgYG4vF0rEsTIrNwkqwMqwSq8Ea4XO+inVg3dhHnIjTcQbuDHdwBJ6M8/DJ+Cx8Cb4e34XX4qfwq/hDvAf/SqARjAmOBF8ChzCGkE2YQigmlBF2EA4TTsOz1El4RyQS9Ym2RG94FtOIOcTpxCXEjcR9xGZiO/ExsZdEIhmSHEn+pFgSl1RAKiatI+0hNZGukDpJH9TU1czU3NTC1NLVxGrz1MrUdqsdV7ui9kytj6xFtib7kmPJfPI08jLydnIj+RK5k9xH0abYUvwpSZQcylxKOaWGcppyj/JWXV3dQt1HPV5dpD5HvVx9v/o59YfqH6k6VAcqmzqOKqcupe6kNlNvU9/SaDQbWhAtnVZAW0qrop2kPaB90KBruGhwNPgaszUqNGo1rmi80iRrWmuyNCdoFmmWaR7SvKTZrUXWstFia3G1ZmlVaDVo3dTq1aZrj9SO1c7XXqK9W/u89nMdko6NTqgOX2eBzjadkzqP6Rjdks6m8+jz6dvpp+mdukRdW12Obo5uqe5e3TbdHj0dPQ+9FL2pehV6x/Q69DF9G32Ofp7+Mv2D+jf0Pw0zGcYaJhi2eFjNsCvD3hsMNwgyEBiUGOwzuG7wyZBhGGqYa7jCsM7wvhFu5GAUbzTFaJPRaaPu4brD/YbzhpcMPzj8jjFq7GCcYDzdeJtxq3GvialJuInEZJ3JSZNuU33TINMc09Wmx027zOhmAWYis9VmTWYvGHoMFiOPUc44xegxNzaPMJebbzVvM++zsLVItphnsc/iviXFkmmZZbnassWyx8rMarTVDKtqqzvWZGumtdB6rfVZ6/c2tjapNgtt6mye2xrYcmyLbKtt79nR7ALtJttV2l2zJ9oz7XPtN9pfdkAdPB2EDhUOlxxRRy9HkeNGx3YngpOPk9ip0ummM9WZ5VzoXO380EXfJdplnkudy6sRViPSR6wYcXbEV1dP1zzX7a53R+qMjBw5b2TjyDduDm48twq3a+409zD32e717q89HD0EHps8bnnSPUd7LvRs8fzi5e0l9arx6vK28s7w3uB9k6nLjGMuYZ7zIfgE+8z2Oerz0dfLt8D3oO+ffs5+uX67/Z6Psh0lGLV91GN/C3+u/1b/jgBGQEbAloCOQPNAbmBl4KMgyyB+0I6gZyx7Vg5rD+tVsGuwNPhw8Hu2L3smuzkECwkPKQlpC9UJTQ5dH/ogzCIsO6w6rCfcM3x6eHMEISIqYkXETY4Jh8ep4vREekfOjDwVRY1KjFof9SjaIVoa3TgaHR05etXoezHWMeKYulgQy4ldFXs/zjZuctyReGJ8XHxF/NOEkQkzEs4m0hMnJu5OfJcUnLQs6W6yXbI8uSVFM2VcSlXK+9SQ1JWpHWNGjJk55mKaUZoorT6dlJ6SviO9d2zo2DVjO8d5jised2O87fip489PMJqQN+HYRM2J3ImHMggZqRm7Mz5zY7mV3N5MTuaGzB4em7eW95IfxF/N7xL4C1YKnmX5Z63Mep7tn70qu0sYKCwTdovYovWi1zkROZtz3ufG5u7M7c9LzduXr5afkd8g1hHnik9NMp00dVK7xFFSLOmY7Dt5zeQeaZR0hwyRjZfVF+jCj/pWuZ38J/nDwoDCisIPU1KmHJqqPVU8tXWaw7TF054VhRX9Mh2fzpveMsN8xtwZD2eyZm6dhczKnNUy23L2gtmdc8Ln7JpLmZs797d5rvNWzvtrfur8xgUmC+YsePxT+E/VxRrF0uKbC/0Wbl6ELxItalvsvnjd4q8l/JILpa6lZaWfl/CWXPh55M/lP/cvzVratsxr2ablxOXi5TdWBK7YtVJ7ZdHKx6tGr6pdzVhdsvqvNRPXnC/zKNu8lrJWvrajPLq8fp3VuuXrPq8Xrr9eEVyxb4PxhsUb3m/kb7yyKWhTzWaTzaWbP20Rbbm1NXxrbaVNZdk24rbCbU+3p2w/+wvzl6odRjtKd3zZKd7ZsSth16kq76qq3ca7l1Wj1fLqrj3j9lzeG7K3vsa5Zus+/X2l+8F++f4XBzIO3DgYdbDlEPNQza/Wv244TD9cUovUTqvtqRPWddSn1bc3RDa0NPo1Hj7icmTnUfOjFcf0ji07Tjm+4Hh/U1FTb7OkuftE9onHLRNb7p4cc/LaqfhTbaejTp87E3bm5FnW2aZz/ueOnvc933CBeaHuotfF2lbP1sO/ef52uM2rrfaS96X6yz6XG9tHtR+/EnjlxNWQq2euca5dvB5zvf1G8o1bN8fd7LjFv/X8dt7t13cK7/TdnXOPcK/kvtb9sgfGDyp/t/99X4dXx7GHIQ9bHyU+uvuY9/jlE9mTz50LntKelj0ze1b13O350a6wrssvxr7ofCl52ddd/If2Hxte2b369c+gP1t7xvR0vpa+7n+z5K3h251/efzV0hvX++Bd/ru+9yUfDD/s+sj8ePZT6qdnfVM+kz6Xf7H/0vg16uu9/vz+fglXyh34FMDgQLOyAHizEwBaGgB02LdRxip7wQFBlP3rAAL/CSv7xQHxAqAGfr/Hd8Ovm5sA7N8O2y/Irwl71TgaAEk+AHV3HxoqkWW5uym5qLBPITzo738LezbSKgC+LO/v76vs7/+yDQYLe8dmsbIHVQgR9gxbOF8y8zPBvxFlf/pdjj/egSICD/Dj/V/yp5DIG6G/zAAAAHplWElmTU0AKgAAAAgABAEGAAMAAAABAAIAAAESAAMAAAABAAEAAAEoAAMAAAABAAIAAIdpAAQAAAABAAAAPgAAAAAAA5KGAAcAAAASAAAAaKACAAQAAAABAAAAlaADAAQAAAABAAAARgAAAABBU0NJSQAAAFNjcmVlbnNob3RhqjecAAAC7mlUWHRYTUw6Y29tLmFkb2JlLnhtcAAAAAAAPHg6eG1wbWV0YSB4bWxuczp4PSJhZG9iZTpuczptZXRhLyIgeDp4bXB0az0iWE1QIENvcmUgNi4wLjAiPgogICA8cmRmOlJERiB4bWxuczpyZGY9Imh0dHA6Ly93d3cudzMub3JnLzE5OTkvMDIvMjItcmRmLXN5bnRheC1ucyMiPgogICAgICA8cmRmOkRlc2NyaXB0aW9uIHJkZjphYm91dD0iIgogICAgICAgICAgICB4bWxuczp0aWZmPSJodHRwOi8vbnMuYWRvYmUuY29tL3RpZmYvMS4wLyIKICAgICAgICAgICAgeG1sbnM6ZXhpZj0iaHR0cDovL25zLmFkb2JlLmNvbS9leGlmLzEuMC8iPgogICAgICAgICA8dGlmZjpDb21wcmVzc2lvbj4xPC90aWZmOkNvbXByZXNzaW9uPgogICAgICAgICA8dGlmZjpSZXNvbHV0aW9uVW5pdD4yPC90aWZmOlJlc29sdXRpb25Vbml0PgogICAgICAgICA8dGlmZjpQaG90b21ldHJpY0ludGVycHJldGF0aW9uPjI8L3RpZmY6UGhvdG9tZXRyaWNJbnRlcnByZXRhdGlvbj4KICAgICAgICAgPHRpZmY6T3JpZW50YXRpb24+MTwvdGlmZjpPcmllbnRhdGlvbj4KICAgICAgICAgPGV4aWY6UGl4ZWxYRGltZW5zaW9uPjE0OTwvZXhpZjpQaXhlbFhEaW1lbnNpb24+CiAgICAgICAgIDxleGlmOlVzZXJDb21tZW50PlNjcmVlbnNob3Q8L2V4aWY6VXNlckNvbW1lbnQ+CiAgICAgICAgIDxleGlmOlBpeGVsWURpbWVuc2lvbj43MDwvZXhpZjpQaXhlbFlEaW1lbnNpb24+CiAgICAgIDwvcmRmOkRlc2NyaXB0aW9uPgogICA8L3JkZjpSREY+CjwveDp4bXBtZXRhPgoANTInAAAZq0lEQVR4Ae2d53KbSXaGmyQCCSYwZ1GiRMVJmlrvVK3tP74CX4Cr/N8X5H++E1e5XOuq3S3PendmVtIokRIl5pxAEkx+n9NoECQhEiCCKAmtIfDhCx1Ov31yf1P3z//678euVmoUKAcF6pyLNtS7SEtzvBzV1eqoUcAoEInUu/pq0aJOKK6VL4MCVQOVc0KVAasmbT93aEWqMcD6+joXjTa44+Njd3BwqO86O65G27U2qk+BqoCqTrKvtUW6mzjVzs6+S6cPM+Cq/oBrLVaeAlUDVTQScZ2dCXd0eOzevl8RqI6MW9V0rcpPcrVbqAqoGBSib6C3XRyr0S2ubLnd3X13rH91XtGq9rhr7VWQAlVT1A+Pj1xHe7O7NdLl+gUudCxhqlY+QwpUDVQAKBppcJ0dLe7OzR7X3BzzBmFN/n12sKoeqEQ6rMDW5kbjVh1tLS4mblVzX312mKqe8zOQLhqNuJ6uVjc82O7a25pcjVEFynw+31XlVCjrDQ11rq21yY0Od7luiULcDbXyeVGguqAS7QBRY2PM3brR7Xp6Wl29ApA1YNVAVQIFvLkXVdDxhjjVQF+7i8cjxr1KqLT26DWjQFU5lY1d0g6FHSUdEXj3dp+5F5CCko618hlQoPqgyiHaUH/SPRzvd62tjRkRWENVDnk+2cOPCqqO9oRxq/6etkzA+ZOlY63jORT4qKBqkJLekUzIGdrrEoloTrdqh58yBSoKqkKEWXMi7kYGO1x3slVKe7RmCX7KaMr0vaKgwgOFuwDf1Idc5/FYxPVK/A30t8l/Ff/QbZ8Bqb+cIVQMVDg6CRonEjEXlxe9XuDKZ901NDS4ZFvC3ZQl2KmAcw1Vnz74KgKq4B7o7EjIydnlmqQvkeKSTxxyL76q8bE+19vXVnOGfvqYqkzsz4u8ejk3k278Vq9rjMckBkWtfKxKp3GG9ssROiwXQ0d700d1hgL8D3TzWk03kiD37zp1riKcqr6+XikuCTc8kHR9CsWwbeeiwv2NUtJvKtfqttJiEJsXYPCiqkq6xmJATKs7tgjow3UsYdE2iK4RpRNhRXPuupSyZn6yyuUsFygIw3Q6nJtNjdHC2KEeHh7odA/vDrjXbxfd3t6Bc4dHqrE6xPKbMyIuglGhciROQMrzkfrA8XXgXuAG8DSKpmTQYi3Tv9TOntvc2rs2ef9lBRWUh+s0KWCM4k368FZqz5KGbaYu+ACQJO7xzMhgp9vc3HOpVNqLzQueK8clJosV393Z7Nhci/63r8la30hpsnbdfvogrz5YrrZzuQwijZIPxNxHP8mc/e7RkBsa6HBb27vu11fz7m+/zrjtbXYq8Xx1FqJ1NM9HeUGlBsg6YGJGRzpdT3erS71P52n2/CkmlszQjmSzAfLN1JJ23uhZ6OPpfP6hMpxhElgIzbJSf/PdqLsjHZDfKS2Gn56+d89fz7mV5e38s1xi+4yZcgKEDKDs7PmBI5p7ulrcg/E+9/jrUVnLCaNPoinmVla33eTUvnH4UK9V8xE+ygqqwJqHlIDX19OuidKqL3KELcoMHZYztFPg2trec/v7Wn1VIExM/jLavX9nwDVIhm9s7biZhXX39t0yMkc9qEQv6lxXV8I7fiXSaGN1LeVW1raNSx8h/XOLupGQFOhSHhqJjqZaqK998vMllfCICL8OpWygYrWhMDK4e3IPkNXJIIvdLcPkotwPDrS71XUReDUlOlViQj35Q81MB/0FUHAqFgNzxHelpop6EfXff33DdSVJWHTu6atZ99OTae02WnVHR6F3mb7q574247ITaWc3bf2Fu6e0l5Lz2ltyLUrZQIUym5Di2NfbJhHS7xJNca/gFjkjKMpJsfWxGz1udm7TVi6UMlWhGiSz/mr2jDvpx+l5LWsP6mRlElRH/+wRtxGU3ar0uIk3SwZsmQun2mPhrun6u9lVN/R+2XVLFB4dOvdmatnNzK27wyoaNqc6duZHeUAl2h9qk2h3R7O7f7vfgsSs+AOdK7aYCJVf696dfvfqzaKbkCUIooqvqdiWi7/fAz3TtzMdNExSZR5OF55DvHEfrgHyyygRcw8w5OCHynBL8K1zW7LyXryeN2uvVWGt/f0jt7S0ZVz9UBVm27XaTj5Cm9bNIvp6UkPhR2UBFWICr3h/f7sbG+2Wz8lXawM5M4BCugZhe7raLND8sqvZLa9suyOZ99epMHkoziYeIQCCni8Vxn0CitPuCO4x0apnUBdyfUzhPBZeePfEsURgAAJHB1il6ztud2/fETflN68R2Lcd3779fJ+miqjx8J17D20Etwn9LrWUB1TSQZJKYRnuV7aBFEhAUUqB8DF8XUOdtkcQH8zhYVo6hl/ZpdRdjmeZGHS/RFPUxHyTxH405p2QTArcg0lP7cotsp02iwwuQqnTszh60TlbZMigcMf0bABoa3OT3Cptbi8tPUlgwV+3JT8UHArxBuBaWmIu2ZowfyCI25RbYUUKflptnMOEaEnEgqgGFi7GU7wRf1y93Uud6Gjbsna35MLZU7/xz5VSSgIVAxCebKAj8pkMilNBYBRdX66GelYsdQ8S5pHSjxhk4F7HyLCDUkZd5LO5owBQOB/ZCXRLbpNhAb+nu8XcKPFYVMqyRJSAtLSyKT1nzb2dXnGz8+tmyaIiAJ7uzhb3m29vuBE9SygLIDFmLIJ+xT9/iN9yj+4NmvK9rFcEBD8Ujs4mAfm28s++fThkbUKnFxNz7k9/njSOdSxt3erSGJkHMkTaFfoaUnTj5lCXLNyk61L7+BIBJAr/4vKmm1I/J6Sbzc2vWV/9uy6KJFTm9pJAZb0SJRB37I7Bg441cqpcFQN6Dq/xIDFBAXZ1bceI3ADxP1I5EidoE4cZH+t1j78adTfkguA3YCKKUIfmrVlm9Q8PddiCmF9aFyjm3F9+eWdinAlv0RtwANT4WL+AEctyKQDC9jW4CZYfr12aSay5peUt4zYH+3BI7fJONimk1W0GDZwRBy2cM5CGejgmPDaqdh7eG3D3lbbdhXM3IU+87iU7xPqqMfXJmTqq+u6OrcuJOu2ePJ+1hXBVMpcIKu/hZfJHRERYOey9XAW9AmcoYnBCztC0PNsfozAiwID+c0Or/bePb2kC+i1lB6a8s3sgRXnHRIeJJ4ECB3C7ANIp4yUei9nE76TkCpB4oTDp9qdFKQz49ckBf3bN62sco0sJY3Y+iN4WibJWtQGo4Jz1AFqF25gC+tEh8H0tjvb4qxEDDmDifsC6Y5zfi0bEMH/tLSeABqg4n69ibF0ZVKwGCEq+1JBWLKEDBsf5chZzhopT4cfZDs7QMrdxeX99kNnvV+ySaBo2x6PmLiM6Vt3cwobExo5xLRYXnAinJN5u1AJ8d2+nVtyudKWNjV33enLRwGhZr7ofPQtErKxvi6Nt+fCQHL9LOp5b3DQgZPuZM37em2Ml80UdgBUxOabg/Ff3B9WXLoHyyIC0srplzlUcyzAAXkOAOMbZjLF1WxEFdLQFccfXUjsOBSzUQeostFwZVFCA1YHC+O2DYSmeChmoFNP4RZ0MYwCopMUMDLSJ4DKdzRl60ZOVuEYox5ku0iFwx8VBUXTx9j99Mev+63+ei1Ntu7QUdCa1U0bLt4+G3e9+e8cWW4RERCUgNmsC6xVOAYD/+fvnJsr+8Yfb7h9+GLcIBGN+J93mj3+ekB65kH05HPoN+lgubQ1XfJxZxXC1OnW2TdIDvatfOht61UH62AD6418n3ZNfZ92SwIUro0eAgpN9/43CPgIW95It8v1XN9z80saVdNkrg+pQ/Li1VVxqqN0yEggZVKLg7wKw+L/m5zbcMnE4rc5cAlei3dN1+vbi0mewSs0QEQKw6DY2/arGkLBXT+pBzj99MWciqFfxT+YdZZhsAnSlw8NDyy7Y3z+QlXdg5xBLjAug4iHf2kqbuLfz/pLFVU/36/wvvOq8rwLH6GBfh3FU7iLw/ET6Et76aRkQ6H2I9GBVshp+93fjri0iq1SGAwZDd2erW7uCLnslUIUJJQY1LksEr3CpboTz5PFnGHiT2DI7blB4J98tafK0Hs+s0A89X57ztFdn5r3FImlb/8GBSPH5/psRNzO7bpx0Z0cZDbqG2PpZAemEdBXoxWsp1zd3BKBg9lNnDqPhWPcxrtN/GTroOo3CzS4qFtmQ6OsTmJulczWIa1EfqsOLiXlxyXUTg0QuqBJgY6W+koWIWDeXgxYPenKX9ME34mYW/vEq20VNZ69dEVR1Jn8Jydwc7jY9IltjBQ5QOnu75QyVbvVK7HpJzlAmt5rlWGAgRAJYCDaTV4/Fd48Igo6ZsFlNGP6iLXGvbeki67pvfgl9SDlZ4lCY+0w6hU8Dlf3yH1nAZABk13UMKP1TOTd/4BAAYY2jJ2GJ8yztb8sHtSjPO8YO7WS6YdxqT/4wOBLj67Wkyqi5HJLa5IsFqZ5/oLX8p68EKiwQzNMh6Trs22PSK1loj2GZ2Xt7TXlOb0zUaJ6NaJVs29ddJ5F2bJ7sibdLsgDn3YO7g7aqMeUH5PTtEejx+ZBhMLewZnrTzPyGm1aczoLimkXed5o7PVkQnR2AXfBXAUUxBbAwH00yELBWKWktwG2J3v0Dnxd2tk6AyD2ISMZJiUmEYpiYqM/ttF29+KMoUNFhOkRnSRDDoQZ7R4mtdIG26Cf4Z17JctqTQ5FXPiIeK12AAoSnvJtedf/9h5fSkbbcd1JwsXqJ2+E/Qq9EbPQJYONjadNXpudWTWz/8mxaiYe75hytbJ8Rkd4dEdpBf8Izn8HLaXKJfAwNPfCAVZoZJwsZlQbyFokpVxSo4JvmJxERiawPaYWec3ae7nLZfjG4NvlReFMMSiRiiOzMahYmiWzUSXme0ZGw+PCh9St3DH+a10ci5qMynSR5ZJYgPqBDiaAnshTx/xQ2S8VOZaAEXN0vggw+bM5s72W4Jfc70wxjwyjCWKAgpgFjqMNOFvhRFKhoDi6FYh6cnYCsKkWD9t7kZulWnW5SYgjLqbAJKq2HJyPUDKgf6HMz4pQLMrlfTSxa6INwC+8z7ZCHnbgef4ggwMaE4Wycl78JK5HcJ/p9Fjanf5+0Wkzvecpzpn0zCngWjkNYJuhYtJNbO/3jWpPig2E+LW9LjloMC10uqhQMKhBL5bzz4JYyEWD7OMvOk6ao9gu+OYyrTcojgEZRtmR/TfDpySi4yiJu9NF9FhRe6ZiN24NrQa4C/mLPZ+RBVxanTHkMirtydo6N9lhIhrfa0OdO6aHca6D6QOtMMP+s6Mvo/oF7853GoUkwe1l+KHQo5gcdC0sQ2i0uN2hRoIxmntY3yjhObFw3YedTWnUQZEYPzPYnX4N5zhUMKjqH0pZsbTZdgtdX+xJ6l6f2CpzC8wxXIDCKteIzQyvQ0KkqfVYrr+t+oN0+I2qbyZ5b3HC/PJ12LycXLESTUhhmQdYeyvmyRCMbORqbus2sZ9LIaiBjAIqFhZBLPRYt+lk05t0AXrH3QWjAVkghYI2fCy88KTG4QhB9eM5vKgA+M79qi1F7xq06xFx7j17uq02/BJ5xQWAtpsRRV5R5S0pNgU1nu1cwqDCJ29ri8suQjdCR4VLZevIfqDeQojBy5K/i7FmATUztgQKkc7KuyLUqlOBn6yr8tx8FHKqvt9XdVR47I4NbY/HhnU4RJ9MEIBqZTFvhmfFbOzihMiULKJ3CAAhGAHeQQXBrpMetrKTMJbGnycUyM2el2gzPhrrOfgMA+sBiA9xk0TZLDKPvPZTFyvloRIaOVAcAyCL9+sGgIgAjdh8hRHxa81owLBAcusXSt2BQgQzSPW7D0oV6EH1pYTmrXEaIS+vJvUH9QOzekXh5pq1Jb/hfkoiIwf+Te2v5jv0IsN4IsgYx2BhvV/R/wILES/L0o7wzqbhb7iqTAbHHvYAMBR1f0VnRB2B2FZDGMrO0GMUBH4kbogcRllqQb2lO+huGydmSj64AAD0IX9pzOYt591ezjAnE9k2BFT8VO3JWN1M2h7y/4r6ybG/JqmaOCQfNy9/2Sn43kgG9TqULRZSCQIXyFo1GLW8IawcPN8TLLWG1gSOOWcmsXJAevMgYa3YuIpYaHlZFHOfWd9HK4F5ERKdicGwamOheMqLDGSpZGBP/+xMU9DWJBdwbJOaR74XnmVXNCgdEcAccw1ircPhNTfCUcsrZRgXAGIP1Vh/rCi7D6XDRoM+QjzYqMUs6Smp3V8CYdz/+dUo60ra5Ixgjz140WubAPOivF8w6bZGbA0aQaIq4R/eHrH4AjliEgyUa/a4n3ArrG9vu2cs597NcIGl52ym5c2MnLvkoEFT1xpbJa4I953N2BiBAfAYMmNbUQZLVLL6ls7t7aSMwpitpLaxMY+h8F9Fz7oVTouPMjPWYUnq4i9e6eAJk6aOZJlcronpRduEU+soSFIJjuf0sHQqg/NPf35cakDSREY8mLf3ZRBR907MAhD6yIZW9g3/8v0l5tDflWjgxLJCIc4vr2uiwaC6aeLzNnq2v9+nEcOT21g1ZbuQ/SdfRLgcAySKnn7QBvfmdJR83qLB4iTf+/k+v3J7A8cPj2wIWep2cmgJuR1ILX/fyLPMAx1zS/X9QMPunv71Xv3esDgBabCkIVDSOYkwKR0RgwDwmKAorR37vyrG2K91iO0V4Qmm0EhH4c9bFYjGj2aXMIH9VkBWLgtXBwHyAVtYU3lsRMKZkN7OuTFlVyqtNDJPkU3WZJIhrRBR5ATj5Tc+1EWBe+pVgpfFnqFogJcLdjAWH5tT0srVHagiGAAvCFoqqlk/ckgWfaRzMCKDG0QknsJRgUKhJQLlFTLLF7N3MiqWQvJd+AygRc9miY9JgXoijsMhuSlnuJgtCtAHYgBTulhJtw2Kln0w42aR4yQE4qTKAgrbDeLifvr+bWdWzcMQd41q9Eq9Nor/3SQl8aoONs8zTxNsFccYFy044kIV4VZXiQlAxfjqpubQkLjr3Xh7ltExVgAPh+AY0W9IZmAii3uTjEPsyL26Gigx+Uol2pK0CDAAFgMidhohNmRVkYBPAPOgip0DmAefPwS1932TZSHEnrnWsyWQBFFfEKzUu9KFn0kEAEuDFLH/7btX0IK6Hgignvve/f3njpt6t2B5FQlWk6EQFfiYi6FC4D4gHoptQRwiBhLqYeHScGaXwbohmU6Jtt15sgqWIQQLNAPqiJhyAcT/9nJ5Zcz9G3ljOFOemtT2LufAywhMgtMccQHfSWMjdwnlscUu4nDpC+4x5bmHTAXzqhwH4ukJPi/uu+5d/+48ckp1/mEkivsWLM7pEPONKSjSDIyG3sX44x6Ahgv9Tp3TMwLJL50zV1OtFnvcBBRbOOY4RP3BFXpjmuRiczAMqcDPOY/oyGVNS2C1YWjyqrGesXNoD8FAbcDAmFFcmjr/cAlNiiz8AhKNGFFzGgchzbFiAo/Asuh6i86ICDABRvXScwIm5nyYtTSZDV/qAwkC7Jp7phIqFWDLt2Yk8H9CUuukjGx/Cbh0WQFrzR3/pJoumlGK0uKwCG5iQSzrv1IxWT4ZI2e/MgJkJ7rXCtx+v/bRDPnQ+3GJ5HpmbPRDtR4bTSMbr/rpd5ftkQAZWjPAQR3+IByYUgrK6AIAHqa+n2E8Dg0QI4jyUAKTsuMIFfWvY7hjQSM85kCpQx2sfZI/bM3rArnNPvodz6uEQmpCZeXTgRV6WdhliUUW2njqAKiCcmfzs9TN1h5/Q2LIkRCcU8ECr3O1ZuiHcXtL3heIv1AzBQTkpvUnlPSfE6kF+AAl4oZzr0rkT/r7sZ3gwc4KfPHLmdKZefxbwkJJrolfORkxnY9clEuTUxGU7ePEBE5lt1jqfAWQYyMWPn7rq68mp79TVkx/WT35mGz65dtkR/dU68CvisptLuF4QqKgfEIVX/ZAARkI/5q/tIDkPpxK6dPIoqwlCoExiHKBQbkhnw6rkRRaIl/oUAkHlMgCfVFuZo9z2c48r09q1rrVgUHllk42S0hUkf9lK1NKF78MncplIQkbZDF9tzLYK9QGr9voMrFqptdLdyFOaVW73vExwFGV8RQDMjAGB7gufx6sRvEJPFQQqJpmc0vV1PMqKK8miefpyXim+3e4bbXoYG+11cflA0HMol8n3MJYg18Nvr9eQ+7Mvq2dD1teKPOba4KiQwbYAxPYmzGR8YHApgOd1hRqkAg2vw3dBoKKjTPiRJhOlFO7ALlzvi9lxk5r4G/Jj8U4qUj0InBbCskw/ElDIOKQ+HIVwIbgSf3iRV/VNNoJxSDiS+gFHq5XrS4GCQZUdgiYU7sAkE49ak1MNh+GwQibshr2hFA+2VKHU47s5WwASIYItOUqJpbHPjSAnqRoAiS1YvE4Hjhi4ECAKoZ4aoM5S9Pr9Lh5UGoNZESZ+/G5X3olJDAvv7cDbNgtOPlCgtV/xL9uzL9cPYAKIBFZn5ewjgj6nsAUKN9uc4FZwQO7DSehFLqGEEpS060fvL6JHVwLVCWW8Nxpf0bE2K64SUpBSzZafp0paG7/d6+7yHnVlHeKtfaNXHc5L2TZvvNwCON5wB/h9cAJSEG36NijVAHVC6k/oqERQ+ZEikg71cXTs834IcWCx4e1+P7tmXly40ZpE3abOAyTEmRdvnxC1al0tiAJlAVVoCXCZ5afvtADmE702Mpe9z4nrxpEI0HK/rtYEXKDg5/FdVlAFkgAaXLeWIn3Kg5STopG5uQaoQLXP57sioArk8SpRDTaBHl/KdwTxUys1CpRMAUmnYKlH8E7XSo0CJVPAlGNeD3Dk/h+kuJbHTdHMVwAAAABJRU5ErkJggg==;" vertex="1" parent="J64CTBNtRXwiaGT3BZes-16">
          <mxGeometry x="83.13999999999993" y="145" width="63.86" height="30" as="geometry" />
        </mxCell>
        <mxCell id="J64CTBNtRXwiaGT3BZes-21" style="edgeStyle=orthogonalEdgeStyle;rounded=0;orthogonalLoop=1;jettySize=auto;html=1;exitX=0;exitY=0.5;exitDx=0;exitDy=0;dashed=1;entryX=0;entryY=0.5;entryDx=0;entryDy=0;" edge="1" parent="J64CTBNtRXwiaGT3BZes-16" source="J64CTBNtRXwiaGT3BZes-22" target="J64CTBNtRXwiaGT3BZes-19">
          <mxGeometry relative="1" as="geometry">
            <mxPoint x="62" y="160" as="targetPoint" />
          </mxGeometry>
        </mxCell>
        <mxCell id="J64CTBNtRXwiaGT3BZes-22" value="Management Cluster" style="fillColor=#EFF0F3;strokeColor=none;dashed=0;verticalAlign=top;fontStyle=1;fontColor=#232F3D;" vertex="1" parent="J64CTBNtRXwiaGT3BZes-16">
          <mxGeometry x="59" y="220" width="190" height="94" as="geometry" />
        </mxCell>
        <mxCell id="J64CTBNtRXwiaGT3BZes-23" value="" style="shape=image;verticalLabelPosition=bottom;labelBackgroundColor=default;verticalAlign=top;aspect=fixed;imageAspect=0;image=data:image/png,iVBORw0KGgoAAAANSUhEUgAAADsAAAAZCAYAAACPQVaOAAAAAXNSR0IArs4c6QAAAJBlWElmTU0AKgAAAAgABgEGAAMAAAABAAIAAAESAAMAAAABAAEAAAEaAAUAAAABAAAAVgEbAAUAAAABAAAAXgEoAAMAAAABAAIAAIdpAAQAAAABAAAAZgAAAAAAAABIAAAAAQAAAEgAAAABAAOgAQADAAAAAQABAACgAgAEAAAAAQAAADugAwAEAAAAAQAAABkAAAAAGTblRAAAAAlwSFlzAAALEwAACxMBAJqcGAAAAm1pVFh0WE1MOmNvbS5hZG9iZS54bXAAAAAAADx4OnhtcG1ldGEgeG1sbnM6eD0iYWRvYmU6bnM6bWV0YS8iIHg6eG1wdGs9IlhNUCBDb3JlIDYuMC4wIj4KICAgPHJkZjpSREYgeG1sbnM6cmRmPSJodHRwOi8vd3d3LnczLm9yZy8xOTk5LzAyLzIyLXJkZi1zeW50YXgtbnMjIj4KICAgICAgPHJkZjpEZXNjcmlwdGlvbiByZGY6YWJvdXQ9IiIKICAgICAgICAgICAgeG1sbnM6dGlmZj0iaHR0cDovL25zLmFkb2JlLmNvbS90aWZmLzEuMC8iPgogICAgICAgICA8dGlmZjpSZXNvbHV0aW9uVW5pdD4yPC90aWZmOlJlc29sdXRpb25Vbml0PgogICAgICAgICA8dGlmZjpYUmVzb2x1dGlvbj43MjwvdGlmZjpYUmVzb2x1dGlvbj4KICAgICAgICAgPHRpZmY6WVJlc29sdXRpb24+NzI8L3RpZmY6WVJlc29sdXRpb24+CiAgICAgICAgIDx0aWZmOk9yaWVudGF0aW9uPjE8L3RpZmY6T3JpZW50YXRpb24+CiAgICAgICAgIDx0aWZmOkNvbXByZXNzaW9uPjE8L3RpZmY6Q29tcHJlc3Npb24+CiAgICAgICAgIDx0aWZmOlBob3RvbWV0cmljSW50ZXJwcmV0YXRpb24+MjwvdGlmZjpQaG90b21ldHJpY0ludGVycHJldGF0aW9uPgogICAgICA8L3JkZjpEZXNjcmlwdGlvbj4KICAgPC9yZGY6UkRGPgo8L3g6eG1wbWV0YT4KUeGkIgAAA6ZJREFUWAntV2lIVFEU/t5sjaPjTI0bhVnTbkV70Z6JES20hz+MJGj5EfSjgiTJlh/RTtBCBmVoP6SINqIyIok0WtQMW6y0pqwcp3Q2Z3+ve6/M0yln8oeG5LyBeeedc+53z3e/8w4z3PBzgoAeckl6CE9GM0z2f1U7rGxY2f/gBMJt3FZE3uOEreImmorPwvG+FJ7Gr6g7nd42pUvt5jfFcNVViXs4DS9geVIIy9NLpJY65vdaGmB/fV/MCWaEVJb3uPAxZywaruyE+3s1rBU3IBDyzk/Pg+H94RfIb5aa7FF/+DvioAf95eQK1BdsFtMtpQUwPzwP1+dKfD6cBnNJATmMlzBdzRFzghmyYAHqb64qgqxPIvpvKxLT3MYa0ba9vA1v01doZ66DrfIWfFYTlPopMF3bDb65CbqFWS0KGD+g7tRqxCzdA3AcGouOw2czsbhM2w8/bx9mfkXcYGjnbGjFL78O9bglaH5bDI/pE+QxSSymGpkG3fyt6JU4hnRcLsHZIa4JZYRU1lp2BVGjFwRd7zG+h8tQweLu+ndwGsrx884RKEkRfTcUQNE3GZppayCJUCN25X7IYwfie956qCethnb2RhgvZ4F32UnBZ0hMD9WoeQF7mR9dQPSUdJZvLs0XY56GD7BX3YP5UR5UQ6aL/r8ZIZWVqmPhtTb8DSMgrpmRiW+5GXB+qUTcqgOQk87gpHIo4gbB57DAUfMEjXePQSAf2gn0kkbHo3fKpgAcr7ke9lf3oBo2i3WB9dkDxCzOZjlOesCcBJqpGYgav5TMkpKAtcEeQiqrHr8cNqJu29YFKRIC34LHSRkB+iD4PMynGjwN+v3VUBClTNf2sqIEr5vFpBHRjHxCZi4St9zAwN3B333L44ukq+ZDrktC5Ii5dAc2ICmQesIKJGScYKpL5EqG3ZGvkMoq9ZPJyc5BbXYyZGRTCjxg11OA5/Hj1gFEjVlMCOXAcDCVkHVDOWAijIXbyQArg8/+AzHL9kGmiYcifihqyaBLWEvfrywYDqWCdg09EN2iFrV+L9Zcko+49KOEaAoL0QFJW1miiCSvPfd7OnluzxeYxnXkL57A+8CTFpRG9marBUKWDhq6Ke92kI6SgpMpRGQfGU6sKJlc9FF1/Tl0Pe8keCqtGP8XRkhl/QVQMn6i1MdJWrtfoojwp4n39kj4ifrXt5cjAnSR0Vp1F23QnWDDZLuTGp1ZS1jZzjzN7oQVVrY7qdGZtfQoZX8B20BHpvHLI44AAAAASUVORK5CYII=;" vertex="1" parent="J64CTBNtRXwiaGT3BZes-16">
          <mxGeometry x="85" y="249" width="59" height="25" as="geometry" />
        </mxCell>
        <mxCell id="J64CTBNtRXwiaGT3BZes-24" value="" style="shape=image;verticalLabelPosition=bottom;labelBackgroundColor=default;verticalAlign=top;aspect=fixed;imageAspect=0;image=data:image/png,iVBORw0KGgoAAAANSUhEUgAAAEAAAAAfCAYAAABXscv8AAAAAXNSR0IArs4c6QAAAJBlWElmTU0AKgAAAAgABgEGAAMAAAABAAIAAAESAAMAAAABAAEAAAEaAAUAAAABAAAAVgEbAAUAAAABAAAAXgEoAAMAAAABAAIAAIdpAAQAAAABAAAAZgAAAAAAAABIAAAAAQAAAEgAAAABAAOgAQADAAAAAQABAACgAgAEAAAAAQAAAECgAwAEAAAAAQAAAB8AAAAAR0jKjQAAAAlwSFlzAAALEwAACxMBAJqcGAAAAm1pVFh0WE1MOmNvbS5hZG9iZS54bXAAAAAAADx4OnhtcG1ldGEgeG1sbnM6eD0iYWRvYmU6bnM6bWV0YS8iIHg6eG1wdGs9IlhNUCBDb3JlIDYuMC4wIj4KICAgPHJkZjpSREYgeG1sbnM6cmRmPSJodHRwOi8vd3d3LnczLm9yZy8xOTk5LzAyLzIyLXJkZi1zeW50YXgtbnMjIj4KICAgICAgPHJkZjpEZXNjcmlwdGlvbiByZGY6YWJvdXQ9IiIKICAgICAgICAgICAgeG1sbnM6dGlmZj0iaHR0cDovL25zLmFkb2JlLmNvbS90aWZmLzEuMC8iPgogICAgICAgICA8dGlmZjpSZXNvbHV0aW9uVW5pdD4yPC90aWZmOlJlc29sdXRpb25Vbml0PgogICAgICAgICA8dGlmZjpYUmVzb2x1dGlvbj43MjwvdGlmZjpYUmVzb2x1dGlvbj4KICAgICAgICAgPHRpZmY6WVJlc29sdXRpb24+NzI8L3RpZmY6WVJlc29sdXRpb24+CiAgICAgICAgIDx0aWZmOk9yaWVudGF0aW9uPjE8L3RpZmY6T3JpZW50YXRpb24+CiAgICAgICAgIDx0aWZmOkNvbXByZXNzaW9uPjE8L3RpZmY6Q29tcHJlc3Npb24+CiAgICAgICAgIDx0aWZmOlBob3RvbWV0cmljSW50ZXJwcmV0YXRpb24+MjwvdGlmZjpQaG90b21ldHJpY0ludGVycHJldGF0aW9uPgogICAgICA8L3JkZjpEZXNjcmlwdGlvbj4KICAgPC9yZGY6UkRGPgo8L3g6eG1wbWV0YT4KUeGkIgAABvVJREFUWAntWHlslFUQ/317dbst3d5LoRRIuUVoEOUoh4AElIAkHAIGBNR4EKUBgahIQ5SgEBFFBCUcgnLIIQjeSLnkLBUERLCltLSlpz227W53t7vOvPJtt8u2uyX4R9NOsvne9828eW/mzcz7zQIt1Lw9IHXb5HA0ZxcomrPxbHuLAxoTAbbSXJSd24XSU1/BkvePmGpM2Q9TerJHNdbiHJLdhpJjG2AtzPAo4+1j5Y0TyPpkPGxlBai4dqRB8aqcayg5uQVl53fDZixsUFZm+hwB5sxLuLm4J0p//xJVOX+h8Lt3hQ67uRwOqwkOKiXMl8mckYL0Jb1QceVnVF4/hvSlfWDOvCizfX6WHN+IgIdGoir7Mgr3J9Y7r+TEZmQsG4CKq7/AlHaaDuhGvbKuDJXrS0PjstPbEPbkQoQ9tbCOmMNSCUe1FXlfvw5rfhqyP5uM8PFLkb/nTYSNod/o+UK+6MeVIhq0MXHI3fYqNFHdUfHnDwjqNxX6+Bkop3Hx4TVQ+AfBMHU1VMFRYOeWXzpE7x+R8/5wrluw921U3jgOVUg0ImgtTesuKDmyFtEJ30PXOd4p58vA5wgwXtiHwN5jwGlQnLRe/KpNRpgzLgjD9QOn0+ZbIWLicqgjOqKKTjugxwjnHgJ6PIHylG/Fe/nFQ1DqQhAx6QMU7FsMCzkuf/cihI9bgsjJK0mPXshxKLMOZUCIUw8PWvWdgLZz9gnDi5PWifSyFNyEf2z/OnK+vPjsAGVgOOVhnlNn4YGlqC6vzTN1aDtISjU0kbFQqLVQ6IJRbSxwyosx8WXSdR8Gbbte0HUZLFIkcuL7FD2TyLHrAEkSYqUnN0M/aJY8xfnkdLyzaRaF+69iD7wWR6HDYnLK+Drw2QHsdS5mEhkXMuzle04FkgIOm8W5rq7rUAr5rbDTpvjH44Bujzv5vFmH3Q5L7nVwWnB0dXzvKkVUCoznv6EcTqWTTRf575xEA2txNvJ3zUebl7YjdMRrgqXU6Sn0B6H46Po6e3CdV9/Y5xqgj59JBW0aUhOioDF0Ft5WaHSkt+a0VHoDfe+C9MQ4tH7uCximrELW2glIW9BBrO1HRkbPWO/cx52NM0VEcQRo2/dB5orhdCmrYCvJgX+neCq2WxA0YDr5Vemcw2up9FFQh3fE7VWjqUYYhfNYIPzpRORsmIGig8tIxoBQqlfBg2e7zPU8bDQStFvNwnj3vJTVcxRIKo38impTGY0lKKk+yJQ6PwbtF5+GMjBMpIv8na86VVCEiAx2XMyCwyLPZb7rs7qylOpITa1w/84HI6lq082V7z72OQLkiZzf4F895Go8iyipqrsTF0mJTlvocmGy8UwOWxWiZm+q13iW8WR8Q9+Z54kaHQGelDTlbz4XwaZsZEN7b1IOMGddFlC8IYMay3tgDnCHwo3dSH3yjCAZ3wuiAsuV/0GS1yLIVTxv6yuwFKTBj+Crga6yyr+TxHXF1wxD2GpqPEzp5+tAYcYFxb+tEWAoZPgc6LoOofdPCbDYYEo9RQWuK/yie6Ls7E6BHPnaLDuzAyUnNgpQw7BboW0leg8ulraiTOgIFdqrKoX93BiVEGhSBbdBCOEBjaGTgNj+sQMIR+yGmq5qw5QPvfrKawRIKj+EjpqH6LmHYKU7uuLKT2RoqoC6rJ27Qsbp7lA4d8uL4n4PHZmA7HXPwG6tgunmOQI3txAxeQWMyXuoqbqGSML5ZWe2C+Cj7fAIop7fjPCx7wiI7NeuNznpYQT2GQ/9kBeEE8w3z5ITKpDz+bO0rzfIkd2E4bwXhtjMi5z2Mbh3kTtW5tVHXiNAIlhqJAxvppbXWpAuTtuTMlcozFFjvpWMmEVHKRAU4jozUVvLpO34KDThHaAOaw9dp4FirApuSxsvh53mcZTYqcFimM1XHV+jqiAD1CFtIAPdymtJ8CMY7R/bTzg5f+c8crBZ6A+MG0uybaEOjfEpXbxGgDF5rzi56LkHEUD4XZCkvAtw6M4mDF7zrRYKi01TN2f9N5NATbVwHIe7N7pDUcPpEjVzQ62oG8RmBhvPUSigNKUm4wp3TFGroOGR1wjgE7PufQsZywfRqRTRCT5G+TwUhQcSCb6OIAdYoO3QV8BPVygcPi4RWavH0OoSgvpPJX7re3dyt+mRGYE9RyFvR8JdJFkDsQP4G7Xa5tuX6ACGkzqJoicGgXHjxP8NPJe7SM9Uo8Mzr+arT0DIYaNOi05a4cfYv4a4wWGc7o78XKEwFzxGdQq/AHma1yenjzt65PU9QVv+v0DS+It9eFVcj4DXCOB5vLj7BhS0sCdydYikVFGL7NMSTlXuxjPDfW1ZWKENlIf3/fRaA+5bcxOZ2Owd0ETOqWWbLR5o8cD/5IH/AAZ6yvQGinZVAAAAAElFTkSuQmCC;" vertex="1" parent="J64CTBNtRXwiaGT3BZes-16">
          <mxGeometry x="161" y="246" width="64" height="31" as="geometry" />
        </mxCell>
        <mxCell id="J64CTBNtRXwiaGT3BZes-25" value="" style="shape=image;verticalLabelPosition=bottom;labelBackgroundColor=default;verticalAlign=top;aspect=fixed;imageAspect=0;image=data:image/png,iVBORw0KGgoAAAANSUhEUgAAAEEAAAAZCAYAAABuKkPfAAAAAXNSR0IArs4c6QAAAJBlWElmTU0AKgAAAAgABgEGAAMAAAABAAIAAAESAAMAAAABAAEAAAEaAAUAAAABAAAAVgEbAAUAAAABAAAAXgEoAAMAAAABAAIAAIdpAAQAAAABAAAAZgAAAAAAAABIAAAAAQAAAEgAAAABAAOgAQADAAAAAQABAACgAgAEAAAAAQAAAEGgAwAEAAAAAQAAABkAAAAAT670bgAAAAlwSFlzAAALEwAACxMBAJqcGAAAAm1pVFh0WE1MOmNvbS5hZG9iZS54bXAAAAAAADx4OnhtcG1ldGEgeG1sbnM6eD0iYWRvYmU6bnM6bWV0YS8iIHg6eG1wdGs9IlhNUCBDb3JlIDYuMC4wIj4KICAgPHJkZjpSREYgeG1sbnM6cmRmPSJodHRwOi8vd3d3LnczLm9yZy8xOTk5LzAyLzIyLXJkZi1zeW50YXgtbnMjIj4KICAgICAgPHJkZjpEZXNjcmlwdGlvbiByZGY6YWJvdXQ9IiIKICAgICAgICAgICAgeG1sbnM6dGlmZj0iaHR0cDovL25zLmFkb2JlLmNvbS90aWZmLzEuMC8iPgogICAgICAgICA8dGlmZjpSZXNvbHV0aW9uVW5pdD4yPC90aWZmOlJlc29sdXRpb25Vbml0PgogICAgICAgICA8dGlmZjpYUmVzb2x1dGlvbj43MjwvdGlmZjpYUmVzb2x1dGlvbj4KICAgICAgICAgPHRpZmY6WVJlc29sdXRpb24+NzI8L3RpZmY6WVJlc29sdXRpb24+CiAgICAgICAgIDx0aWZmOk9yaWVudGF0aW9uPjE8L3RpZmY6T3JpZW50YXRpb24+CiAgICAgICAgIDx0aWZmOkNvbXByZXNzaW9uPjE8L3RpZmY6Q29tcHJlc3Npb24+CiAgICAgICAgIDx0aWZmOlBob3RvbWV0cmljSW50ZXJwcmV0YXRpb24+MjwvdGlmZjpQaG90b21ldHJpY0ludGVycHJldGF0aW9uPgogICAgICA8L3JkZjpEZXNjcmlwdGlvbj4KICAgPC9yZGY6UkRGPgo8L3g6eG1wbWV0YT4KUeGkIgAAA5lJREFUWAntV1lIVFEY/q4z4zjONJO7kalhu2VmVFYgFLaQS7TgUrRBPbRRRC9RED0UZVlZgkQUgRK00oMlGhVRIa22CGlmmY3opDOms++dc6a5VjJ4J3yJ7nm49//P+ZdzvvP9/+Vyky56vfjPR8h/fn52fBEEAoMIggiCrxmITBCZIDLBh0AwTHD1dcH46hbvSAWn4StMb+/8NjeUYtO+Q/+zK0OZDVp3W/uhrzk+aH44JgT3BFvbS3SUr4CpsZbPq6vaCd3lXbwuSHA54LEZmam2LB+Ob62C3OB2wW3uFWYbpJU0GHtZVDJ6buyHMnUxbJ+ewdbeAE4aykLYO5vRe+8s3MZuRCzcjvCJWUQvJx9hKbF9Co/Dgri15fA4bfDYLfj+8DwsH59AV7UDmqzNUE5eiN4HFbC2PIZ6dhHU89bB0vSA5bF3NkE9pxges57l6qrcBkXKXBifX4MsbjziikpBmaq/fRQu4zfQfaqm5yB8/HxBxxPMBBotLCUTkpGjYHxxA9039yNm5WE+SdelLQhLykDkot3oqCgkh7XDSoCyE6Ci8g7AQ+hsargFl76dgaJKz4NEoUHkkj0MAEPdKbL2BbEFJ2C4WwZraz2cPW3oq68iB8qFLHIMTG+qWT7T62oCpBmxa8rQX18Jh66FlEoJwHGIKyyF7acvv7khhKBAoLFiVh2BrnIrC6tMzWZvWq+2thfQzN8Ixbi5CI2fAOuHR2xNMSELobEpkI9O5cuALkg18YBEBll0MiTKCJhJb6H+8tFToErPZTq1ozeunrWa2VDdPyiIoTFjCTiJLK7l/X3CoEJIySVJoxL9ZoLeQYMQljAN8RvOIX59BZ9AolCz5E5DO7weN5zdnyFPmMqvBxI4LgRe0iPokI+ZDntXM5MdpLTkCWlMFvqgYJgb6wggJlYaQv2oXVA9wR94xMyVTHT16fxTiM4/CO3pHKJzUGcW+26aX/ULHKMspS0dqhnLoT2zHJFL92Lkgq2MYb21JyGNToIqbRn6n1/1O/58+/z+mCQqh5iCEnRe2ERK9TopRSs4ifCjccP5K+0lHdzrsiNErhy8zwAzlAn+5kpN3JY+SMI1AawDT7utRpI3nDGh7VAGkvY9ZuwM7DGwIhyuAZ+AEkU/mBuggX4FgOp/AwD1M5NPt6HmGCvHiOxdggGgvsPKBBrwXxxBN8Z/8ZBD7VkEgSAkgiCC4CsUkQkiE0Qm+BAgzx+3tTvucwuQZQAAAABJRU5ErkJggg==;" vertex="1" parent="J64CTBNtRXwiaGT3BZes-16">
          <mxGeometry x="82" y="281" width="65" height="25" as="geometry" />
        </mxCell>
        <mxCell id="J64CTBNtRXwiaGT3BZes-26" value="" style="shape=image;verticalLabelPosition=bottom;labelBackgroundColor=default;verticalAlign=top;aspect=fixed;imageAspect=0;image=data:image/png,iVBORw0KGgoAAAANSUhEUgAAAEAAAAAZCAYAAACB6CjhAAAAAXNSR0IArs4c6QAAAJBlWElmTU0AKgAAAAgABgEGAAMAAAABAAIAAAESAAMAAAABAAEAAAEaAAUAAAABAAAAVgEbAAUAAAABAAAAXgEoAAMAAAABAAIAAIdpAAQAAAABAAAAZgAAAAAAAABIAAAAAQAAAEgAAAABAAOgAQADAAAAAQABAACgAgAEAAAAAQAAAECgAwAEAAAAAQAAABkAAAAAyAg/LQAAAAlwSFlzAAALEwAACxMBAJqcGAAAAm1pVFh0WE1MOmNvbS5hZG9iZS54bXAAAAAAADx4OnhtcG1ldGEgeG1sbnM6eD0iYWRvYmU6bnM6bWV0YS8iIHg6eG1wdGs9IlhNUCBDb3JlIDYuMC4wIj4KICAgPHJkZjpSREYgeG1sbnM6cmRmPSJodHRwOi8vd3d3LnczLm9yZy8xOTk5LzAyLzIyLXJkZi1zeW50YXgtbnMjIj4KICAgICAgPHJkZjpEZXNjcmlwdGlvbiByZGY6YWJvdXQ9IiIKICAgICAgICAgICAgeG1sbnM6dGlmZj0iaHR0cDovL25zLmFkb2JlLmNvbS90aWZmLzEuMC8iPgogICAgICAgICA8dGlmZjpSZXNvbHV0aW9uVW5pdD4yPC90aWZmOlJlc29sdXRpb25Vbml0PgogICAgICAgICA8dGlmZjpYUmVzb2x1dGlvbj43MjwvdGlmZjpYUmVzb2x1dGlvbj4KICAgICAgICAgPHRpZmY6WVJlc29sdXRpb24+NzI8L3RpZmY6WVJlc29sdXRpb24+CiAgICAgICAgIDx0aWZmOk9yaWVudGF0aW9uPjE8L3RpZmY6T3JpZW50YXRpb24+CiAgICAgICAgIDx0aWZmOkNvbXByZXNzaW9uPjE8L3RpZmY6Q29tcHJlc3Npb24+CiAgICAgICAgIDx0aWZmOlBob3RvbWV0cmljSW50ZXJwcmV0YXRpb24+MjwvdGlmZjpQaG90b21ldHJpY0ludGVycHJldGF0aW9uPgogICAgICA8L3JkZjpEZXNjcmlwdGlvbj4KICAgPC9yZGY6UkRGPgo8L3g6eG1wbWV0YT4KUeGkIgAABAxJREFUWAntl3toU3cUx7/35iYa0yTGpmnKtnad0im26JQyp0yoIJvIplDtLEyck4GvP/xDlA2nDjaUOVSoD9xwVerQbWywgdpBBatT54OV6XQ+qtWaNm1jm+bRvG6S6/n9XIMpaW4x/mOb88fl9zjn/H7nnM+5NxEmfq8oGMEijuDYeejZBGQJGOEZyLbACAcAWQKGSkDgZiPCbdeHqv5c9Rx7KhH1uhByXIP30o/P1feQCIjLITj2VqLzyNq0hyv0m+reptK0Os+yGWq5DCUWAaIRxEO+Z3ExqI006M5TG/6m32F8YwECtxohP3oArbUIPX/shL7kbeiLy9Fd/w0MEyvQ++chyF130bavCtaFXwCCCPepGsR8LljmrMGY12fDf/UE3A01EPUm5FfvRjwSRG/jAUScN7lNpP0/9J49SAHLyJ23ATlT5iduwgoRDwcQ9XSi+/g2aHML4b92Eua3PoR51jKEHjSh+8R2SJaXoJDfvEXboBkzNmGfajAkAjznDsP05hIYy6vguVDH/QSbzyPa8/DJ+M45yG4HzDOXUmBGfrA2rxgdhz7B6KJpGDd3Hdr2f4C4HEbXzxthfX8zbFU7SNcMZ+3HkEx22JbsooCKMPrV6ShYUQvre5/D9eumpDtHu1sRuneRktBH9ziCUS+XIXf+p3D98hnXc9augHF6JSwVq+G9/BPXS3KQYqJKAMt2340GXr2Y/xF8V07T5ZIv1u9XO+4VCBotdLbxiAW9CN2/gsKNpwkEETp7CYK3z8K2aDsRshgmSpaFEsPwLlzfQHZPrhKmPnef2kNkBMDOG0w0BgsMk+dSS/h5W8T63JwiY/liCIIAcVTOYKZJ66oEeP/6ATll7/LqGCbNIWMFweYLgKjhQTJvDFcuhLxCfcpEQ4hLYwsg97RCiccgu1qoYqUc6eIvrxOufyPwbz0kow2RrmZuwx5Oooa1S8FH3yXW+ECJJ88HzERCXZB0CN46g2ivE4ocHKCReqpKgOd8HeG5E4ZJFdxDpOM2bwND2TyOnu/iMR4k25TM+dDll6Bly1TYl31LqG+BYzfrYQGmGdW0b0fr15REUaJLtkM/YRb1/Va01Szk7WBdsBU5pe+g8+g6HgyzY6KfMBMdh1fyFqPy8rXkh8Crbl9+EB11q/g5rE0EOkdNhEz+DjPMWaUHCqOAVYOJEosSFWFC0pBQY580yZSXmLOvh0IvOFGn52up/DKKBKIuncQCHnrpmRFq/QftB6rx2lc30qnzPfUUpXGRKnim3h88H1Nv9/d3v6ung+c6VFXh/+DZPJVfteCZXU/9DviafqO2yoOtehdbUpWMCFD1/gIoqL4EX4AYMrpiNgEZpW8YGGcJGAZFzCiELAEZpW8YGD8GX7By8lSxGpcAAAAASUVORK5CYII=;" vertex="1" parent="J64CTBNtRXwiaGT3BZes-16">
          <mxGeometry x="161" y="281" width="64" height="25" as="geometry" />
        </mxCell>
        <mxCell id="J64CTBNtRXwiaGT3BZes-27" value="Apps" style="sketch=0;outlineConnect=0;fontColor=#232F3E;gradientColor=#F78E04;fillColor=#D05C17;strokeColor=#ffffff;dashed=0;verticalLabelPosition=bottom;verticalAlign=top;align=center;html=1;fontSize=12;fontStyle=0;aspect=fixed;pointerEvents=1;shape=mxgraph.aws4.container_1;fontFamily=Helvetica;" vertex="1" parent="J64CTBNtRXwiaGT3BZes-16">
          <mxGeometry x="173" y="135" width="40" height="40" as="geometry" />
        </mxCell>
        <mxCell id="J64CTBNtRXwiaGT3BZes-28" value="Corporate data center" style="points=[[0,0],[0.25,0],[0.5,0],[0.75,0],[1,0],[1,0.25],[1,0.5],[1,0.75],[1,1],[0.75,1],[0.5,1],[0.25,1],[0,1],[0,0.75],[0,0.5],[0,0.25]];outlineConnect=0;gradientColor=none;html=1;whiteSpace=wrap;fontSize=12;fontStyle=0;container=1;pointerEvents=0;collapsible=0;recursiveResize=0;shape=mxgraph.aws4.group;grIcon=mxgraph.aws4.group_corporate_data_center;strokeColor=#5A6C86;fillColor=none;verticalAlign=top;align=left;spacingLeft=30;fontColor=#5A6C86;dashed=0;" vertex="1" parent="1">
          <mxGeometry x="1184" y="231" width="300" height="241" as="geometry" />
        </mxCell>
        <mxCell id="J64CTBNtRXwiaGT3BZes-29" value="Amazon EKS Anywhere" style="fillColor=none;strokeColor=#5A6C86;dashed=1;verticalAlign=top;fontStyle=0;fontColor=#5A6C86;" vertex="1" parent="J64CTBNtRXwiaGT3BZes-28">
          <mxGeometry x="20" y="40" width="260" height="178" as="geometry" />
        </mxCell>
        <mxCell id="J64CTBNtRXwiaGT3BZes-30" value="Workload Cluster" style="fillColor=#EFF0F3;strokeColor=none;dashed=0;verticalAlign=top;fontStyle=1;fontColor=#232F3D;" vertex="1" parent="J64CTBNtRXwiaGT3BZes-28">
          <mxGeometry x="55" y="100" width="190" height="100" as="geometry" />
        </mxCell>
        <mxCell id="J64CTBNtRXwiaGT3BZes-31" value="" style="sketch=0;points=[[0,0,0],[0.25,0,0],[0.5,0,0],[0.75,0,0],[1,0,0],[0,1,0],[0.25,1,0],[0.5,1,0],[0.75,1,0],[1,1,0],[0,0.25,0],[0,0.5,0],[0,0.75,0],[1,0.25,0],[1,0.5,0],[1,0.75,0]];outlineConnect=0;fontColor=#232F3E;gradientColor=#F78E04;gradientDirection=north;fillColor=#D05C17;strokeColor=#ffffff;dashed=0;verticalLabelPosition=bottom;verticalAlign=top;align=center;html=1;fontSize=12;fontStyle=0;aspect=fixed;shape=mxgraph.aws4.resourceIcon;resIcon=mxgraph.aws4.eks_anywhere;" vertex="1" parent="J64CTBNtRXwiaGT3BZes-28">
          <mxGeometry x="20" y="40" width="40" height="40" as="geometry" />
        </mxCell>
        <mxCell id="J64CTBNtRXwiaGT3BZes-32" value="" style="shape=image;verticalLabelPosition=bottom;labelBackgroundColor=default;verticalAlign=top;aspect=fixed;imageAspect=0;image=data:image/png,iVBORw0KGgoAAAANSUhEUgAAAJUAAABGCAYAAADFCNbOAAAMbWlDQ1BJQ0MgUHJvZmlsZQAASImVVwdYU8kWnluSkJDQAghICb0jUgNICaEFkF4EGyEJJJQYE4KKvSwquHYRxYquiii2lWYBsSuLYu+LBRVlXdTFhsqbkICu+8r3zvfNvX/OnPlPuTO59wCg+YErkeShWgDkiwukCeHBjDFp6QzSU4ADHaAPSIDK5ckkrLi4aABl8P53eXcDIIr7VWcF1z/n/6vo8AUyHgDIOIgz+TJePsTNAOAbeBJpAQBEhd5ySoFEgedArCuFAUK8WoGzlXiXAmcq8dEBm6QENsSXAVCjcrnSbAA07kE9o5CXDXk0PkPsKuaLxABoOkEcwBNy+RArYnfKz5+kwOUQ20F7CcQwHsDM/I4z+2/8mUP8XG72EFbmNSBqISKZJI877f8szf+W/Dz5oA8bOKhCaUSCIn9Yw1u5k6IUmApxtzgzJlZRa4g/iPjKugOAUoTyiGSlPWrMk7Fh/eAzB6grnxsSBbExxGHivJholT4zSxTGgRjuFnSqqICTBLEBxIsEstBElc0W6aQElS+0NkvKZqn057jSAb8KXw/kucksFf8boYCj4sc0ioRJqRBTILYqFKXEQKwBsYssNzFKZTOqSMiOGbSRyhMU8VtBnCAQhwcr+bHCLGlYgsq+JF82mC+2RSjixKjwwQJhUoSyPtgpHncgfpgLdlkgZiUP8ghkY6IHc+ELQkKVuWPPBeLkRBXPB0lBcIJyLU6R5MWp7HELQV64Qm8BsYesMFG1Fk8pgJtTyY9nSQrikpRx4kU53Mg4ZTz4chAN2CAEMIAcjkwwCeQAUVt3XTf8pZwJA1wgBdlAAJxVmsEVqQMzYnhNBEXgD4gEQDa0LnhgVgAKof7LkFZ5dQZZA7OFAytywVOI80EUyIO/5QOrxEPeUsATqBH9wzsXDh6MNw8Oxfy/1w9qv2lYUBOt0sgHPTI0By2JocQQYgQxjGiPG+EBuB8eDa9BcLjhTNxnMI9v9oSnhHbCI8J1Qgfh9kTRPOkPUY4GHZA/TFWLzO9rgdtATk88GPeH7JAZ18eNgDPuAf2w8EDo2RNq2aq4FVVh/MD9twy+exoqO7IrGSUPIweR7X5cqeGg4TnEoqj19/VRxpo5VG/20MyP/tnfVZ8P71E/WmKLsEPYWewEdh47itUBBtaE1WOt2DEFHtpdTwZ216C3hIF4ciGP6B/+Bp+sopIy12rXLtfPyrkCwdQCxcFjT5JMk4qyhQUMFnw7CBgcMc/FieHm6uYGgOJdo/z7ehs/8A5B9Fu/6eb/DoB/U39//5FvusgmAA54w+Pf8E1nxwRAWx2Acw08ubRQqcMVFwL8l9CEJ80QmAJLYAfzcQNewA8EgVAQCWJBEkgDE2D0QrjPpWAKmAHmgmJQCpaDNWA92Ay2gV1gLzgI6sBRcAKcARfBZXAd3IW7pxO8BD3gHehDEISE0BA6YoiYIdaII+KGMJEAJBSJRhKQNCQDyUbEiByZgcxHSpGVyHpkK1KFHEAakBPIeaQduY08RLqQN8gnFEOpqC5qgtqgI1AmykKj0CR0PJqNTkaL0AXoUrQcrUT3oLXoCfQieh3tQF+ivRjA1DF9zBxzxpgYG4vF0rEsTIrNwkqwMqwSq8Ea4XO+inVg3dhHnIjTcQbuDHdwBJ6M8/DJ+Cx8Cb4e34XX4qfwq/hDvAf/SqARjAmOBF8ChzCGkE2YQigmlBF2EA4TTsOz1El4RyQS9Ym2RG94FtOIOcTpxCXEjcR9xGZiO/ExsZdEIhmSHEn+pFgSl1RAKiatI+0hNZGukDpJH9TU1czU3NTC1NLVxGrz1MrUdqsdV7ui9kytj6xFtib7kmPJfPI08jLydnIj+RK5k9xH0abYUvwpSZQcylxKOaWGcppyj/JWXV3dQt1HPV5dpD5HvVx9v/o59YfqH6k6VAcqmzqOKqcupe6kNlNvU9/SaDQbWhAtnVZAW0qrop2kPaB90KBruGhwNPgaszUqNGo1rmi80iRrWmuyNCdoFmmWaR7SvKTZrUXWstFia3G1ZmlVaDVo3dTq1aZrj9SO1c7XXqK9W/u89nMdko6NTqgOX2eBzjadkzqP6Rjdks6m8+jz6dvpp+mdukRdW12Obo5uqe5e3TbdHj0dPQ+9FL2pehV6x/Q69DF9G32Ofp7+Mv2D+jf0Pw0zGcYaJhi2eFjNsCvD3hsMNwgyEBiUGOwzuG7wyZBhGGqYa7jCsM7wvhFu5GAUbzTFaJPRaaPu4brD/YbzhpcMPzj8jjFq7GCcYDzdeJtxq3GvialJuInEZJ3JSZNuU33TINMc09Wmx027zOhmAWYis9VmTWYvGHoMFiOPUc44xegxNzaPMJebbzVvM++zsLVItphnsc/iviXFkmmZZbnassWyx8rMarTVDKtqqzvWZGumtdB6rfVZ6/c2tjapNgtt6mye2xrYcmyLbKtt79nR7ALtJttV2l2zJ9oz7XPtN9pfdkAdPB2EDhUOlxxRRy9HkeNGx3YngpOPk9ip0ummM9WZ5VzoXO380EXfJdplnkudy6sRViPSR6wYcXbEV1dP1zzX7a53R+qMjBw5b2TjyDduDm48twq3a+409zD32e717q89HD0EHps8bnnSPUd7LvRs8fzi5e0l9arx6vK28s7w3uB9k6nLjGMuYZ7zIfgE+8z2Oerz0dfLt8D3oO+ffs5+uX67/Z6Psh0lGLV91GN/C3+u/1b/jgBGQEbAloCOQPNAbmBl4KMgyyB+0I6gZyx7Vg5rD+tVsGuwNPhw8Hu2L3smuzkECwkPKQlpC9UJTQ5dH/ogzCIsO6w6rCfcM3x6eHMEISIqYkXETY4Jh8ep4vREekfOjDwVRY1KjFof9SjaIVoa3TgaHR05etXoezHWMeKYulgQy4ldFXs/zjZuctyReGJ8XHxF/NOEkQkzEs4m0hMnJu5OfJcUnLQs6W6yXbI8uSVFM2VcSlXK+9SQ1JWpHWNGjJk55mKaUZoorT6dlJ6SviO9d2zo2DVjO8d5jised2O87fip489PMJqQN+HYRM2J3ImHMggZqRm7Mz5zY7mV3N5MTuaGzB4em7eW95IfxF/N7xL4C1YKnmX5Z63Mep7tn70qu0sYKCwTdovYovWi1zkROZtz3ufG5u7M7c9LzduXr5afkd8g1hHnik9NMp00dVK7xFFSLOmY7Dt5zeQeaZR0hwyRjZfVF+jCj/pWuZ38J/nDwoDCisIPU1KmHJqqPVU8tXWaw7TF054VhRX9Mh2fzpveMsN8xtwZD2eyZm6dhczKnNUy23L2gtmdc8Ln7JpLmZs797d5rvNWzvtrfur8xgUmC+YsePxT+E/VxRrF0uKbC/0Wbl6ELxItalvsvnjd4q8l/JILpa6lZaWfl/CWXPh55M/lP/cvzVratsxr2ablxOXi5TdWBK7YtVJ7ZdHKx6tGr6pdzVhdsvqvNRPXnC/zKNu8lrJWvrajPLq8fp3VuuXrPq8Xrr9eEVyxb4PxhsUb3m/kb7yyKWhTzWaTzaWbP20Rbbm1NXxrbaVNZdk24rbCbU+3p2w/+wvzl6odRjtKd3zZKd7ZsSth16kq76qq3ca7l1Wj1fLqrj3j9lzeG7K3vsa5Zus+/X2l+8F++f4XBzIO3DgYdbDlEPNQza/Wv244TD9cUovUTqvtqRPWddSn1bc3RDa0NPo1Hj7icmTnUfOjFcf0ji07Tjm+4Hh/U1FTb7OkuftE9onHLRNb7p4cc/LaqfhTbaejTp87E3bm5FnW2aZz/ueOnvc933CBeaHuotfF2lbP1sO/ef52uM2rrfaS96X6yz6XG9tHtR+/EnjlxNWQq2euca5dvB5zvf1G8o1bN8fd7LjFv/X8dt7t13cK7/TdnXOPcK/kvtb9sgfGDyp/t/99X4dXx7GHIQ9bHyU+uvuY9/jlE9mTz50LntKelj0ze1b13O350a6wrssvxr7ofCl52ddd/If2Hxte2b369c+gP1t7xvR0vpa+7n+z5K3h251/efzV0hvX++Bd/ru+9yUfDD/s+sj8ePZT6qdnfVM+kz6Xf7H/0vg16uu9/vz+fglXyh34FMDgQLOyAHizEwBaGgB02LdRxip7wQFBlP3rAAL/CSv7xQHxAqAGfr/Hd8Ovm5sA7N8O2y/Irwl71TgaAEk+AHV3HxoqkWW5uym5qLBPITzo738LezbSKgC+LO/v76vs7/+yDQYLe8dmsbIHVQgR9gxbOF8y8zPBvxFlf/pdjj/egSICD/Dj/V/yp5DIG6G/zAAAAHplWElmTU0AKgAAAAgABAEGAAMAAAABAAIAAAESAAMAAAABAAEAAAEoAAMAAAABAAIAAIdpAAQAAAABAAAAPgAAAAAAA5KGAAcAAAASAAAAaKACAAQAAAABAAAAlaADAAQAAAABAAAARgAAAABBU0NJSQAAAFNjcmVlbnNob3RhqjecAAAC7mlUWHRYTUw6Y29tLmFkb2JlLnhtcAAAAAAAPHg6eG1wbWV0YSB4bWxuczp4PSJhZG9iZTpuczptZXRhLyIgeDp4bXB0az0iWE1QIENvcmUgNi4wLjAiPgogICA8cmRmOlJERiB4bWxuczpyZGY9Imh0dHA6Ly93d3cudzMub3JnLzE5OTkvMDIvMjItcmRmLXN5bnRheC1ucyMiPgogICAgICA8cmRmOkRlc2NyaXB0aW9uIHJkZjphYm91dD0iIgogICAgICAgICAgICB4bWxuczp0aWZmPSJodHRwOi8vbnMuYWRvYmUuY29tL3RpZmYvMS4wLyIKICAgICAgICAgICAgeG1sbnM6ZXhpZj0iaHR0cDovL25zLmFkb2JlLmNvbS9leGlmLzEuMC8iPgogICAgICAgICA8dGlmZjpDb21wcmVzc2lvbj4xPC90aWZmOkNvbXByZXNzaW9uPgogICAgICAgICA8dGlmZjpSZXNvbHV0aW9uVW5pdD4yPC90aWZmOlJlc29sdXRpb25Vbml0PgogICAgICAgICA8dGlmZjpQaG90b21ldHJpY0ludGVycHJldGF0aW9uPjI8L3RpZmY6UGhvdG9tZXRyaWNJbnRlcnByZXRhdGlvbj4KICAgICAgICAgPHRpZmY6T3JpZW50YXRpb24+MTwvdGlmZjpPcmllbnRhdGlvbj4KICAgICAgICAgPGV4aWY6UGl4ZWxYRGltZW5zaW9uPjE0OTwvZXhpZjpQaXhlbFhEaW1lbnNpb24+CiAgICAgICAgIDxleGlmOlVzZXJDb21tZW50PlNjcmVlbnNob3Q8L2V4aWY6VXNlckNvbW1lbnQ+CiAgICAgICAgIDxleGlmOlBpeGVsWURpbWVuc2lvbj43MDwvZXhpZjpQaXhlbFlEaW1lbnNpb24+CiAgICAgIDwvcmRmOkRlc2NyaXB0aW9uPgogICA8L3JkZjpSREY+CjwveDp4bXBtZXRhPgoANTInAAAZq0lEQVR4Ae2d53KbSXaGmyQCCSYwZ1GiRMVJmlrvVK3tP74CX4Cr/N8X5H++E1e5XOuq3S3PendmVtIokRIl5pxAEkx+n9NoECQhEiCCKAmtIfDhCx1Ov31yf1P3z//678euVmoUKAcF6pyLNtS7SEtzvBzV1eqoUcAoEInUu/pq0aJOKK6VL4MCVQOVc0KVAasmbT93aEWqMcD6+joXjTa44+Njd3BwqO86O65G27U2qk+BqoCqTrKvtUW6mzjVzs6+S6cPM+Cq/oBrLVaeAlUDVTQScZ2dCXd0eOzevl8RqI6MW9V0rcpPcrVbqAqoGBSib6C3XRyr0S2ubLnd3X13rH91XtGq9rhr7VWQAlVT1A+Pj1xHe7O7NdLl+gUudCxhqlY+QwpUDVQAKBppcJ0dLe7OzR7X3BzzBmFN/n12sKoeqEQ6rMDW5kbjVh1tLS4mblVzX312mKqe8zOQLhqNuJ6uVjc82O7a25pcjVEFynw+31XlVCjrDQ11rq21yY0Od7luiULcDbXyeVGguqAS7QBRY2PM3brR7Xp6Wl29ApA1YNVAVQIFvLkXVdDxhjjVQF+7i8cjxr1KqLT26DWjQFU5lY1d0g6FHSUdEXj3dp+5F5CCko618hlQoPqgyiHaUH/SPRzvd62tjRkRWENVDnk+2cOPCqqO9oRxq/6etkzA+ZOlY63jORT4qKBqkJLekUzIGdrrEoloTrdqh58yBSoKqkKEWXMi7kYGO1x3slVKe7RmCX7KaMr0vaKgwgOFuwDf1Idc5/FYxPVK/A30t8l/Ff/QbZ8Bqb+cIVQMVDg6CRonEjEXlxe9XuDKZ901NDS4ZFvC3ZQl2KmAcw1Vnz74KgKq4B7o7EjIydnlmqQvkeKSTxxyL76q8bE+19vXVnOGfvqYqkzsz4u8ejk3k278Vq9rjMckBkWtfKxKp3GG9ssROiwXQ0d700d1hgL8D3TzWk03kiD37zp1riKcqr6+XikuCTc8kHR9CsWwbeeiwv2NUtJvKtfqttJiEJsXYPCiqkq6xmJATKs7tgjow3UsYdE2iK4RpRNhRXPuupSyZn6yyuUsFygIw3Q6nJtNjdHC2KEeHh7odA/vDrjXbxfd3t6Bc4dHqrE6xPKbMyIuglGhciROQMrzkfrA8XXgXuAG8DSKpmTQYi3Tv9TOntvc2rs2ef9lBRWUh+s0KWCM4k368FZqz5KGbaYu+ACQJO7xzMhgp9vc3HOpVNqLzQueK8clJosV393Z7Nhci/63r8la30hpsnbdfvogrz5YrrZzuQwijZIPxNxHP8mc/e7RkBsa6HBb27vu11fz7m+/zrjtbXYq8Xx1FqJ1NM9HeUGlBsg6YGJGRzpdT3erS71P52n2/CkmlszQjmSzAfLN1JJ23uhZ6OPpfP6hMpxhElgIzbJSf/PdqLsjHZDfKS2Gn56+d89fz7mV5e38s1xi+4yZcgKEDKDs7PmBI5p7ulrcg/E+9/jrUVnLCaNPoinmVla33eTUvnH4UK9V8xE+ygqqwJqHlIDX19OuidKqL3KELcoMHZYztFPg2trec/v7Wn1VIExM/jLavX9nwDVIhm9s7biZhXX39t0yMkc9qEQv6lxXV8I7fiXSaGN1LeVW1raNSx8h/XOLupGQFOhSHhqJjqZaqK998vMllfCICL8OpWygYrWhMDK4e3IPkNXJIIvdLcPkotwPDrS71XUReDUlOlViQj35Q81MB/0FUHAqFgNzxHelpop6EfXff33DdSVJWHTu6atZ99OTae02WnVHR6F3mb7q574247ITaWc3bf2Fu6e0l5Lz2ltyLUrZQIUym5Di2NfbJhHS7xJNca/gFjkjKMpJsfWxGz1udm7TVi6UMlWhGiSz/mr2jDvpx+l5LWsP6mRlElRH/+wRtxGU3ar0uIk3SwZsmQun2mPhrun6u9lVN/R+2XVLFB4dOvdmatnNzK27wyoaNqc6duZHeUAl2h9qk2h3R7O7f7vfgsSs+AOdK7aYCJVf696dfvfqzaKbkCUIooqvqdiWi7/fAz3TtzMdNExSZR5OF55DvHEfrgHyyygRcw8w5OCHynBL8K1zW7LyXryeN2uvVWGt/f0jt7S0ZVz9UBVm27XaTj5Cm9bNIvp6UkPhR2UBFWICr3h/f7sbG+2Wz8lXawM5M4BCugZhe7raLND8sqvZLa9suyOZ99epMHkoziYeIQCCni8Vxn0CitPuCO4x0apnUBdyfUzhPBZeePfEsURgAAJHB1il6ztud2/fETflN68R2Lcd3779fJ+miqjx8J17D20Etwn9LrWUB1TSQZJKYRnuV7aBFEhAUUqB8DF8XUOdtkcQH8zhYVo6hl/ZpdRdjmeZGHS/RFPUxHyTxH405p2QTArcg0lP7cotsp02iwwuQqnTszh60TlbZMigcMf0bABoa3OT3Cptbi8tPUlgwV+3JT8UHArxBuBaWmIu2ZowfyCI25RbYUUKflptnMOEaEnEgqgGFi7GU7wRf1y93Uud6Gjbsna35MLZU7/xz5VSSgIVAxCebKAj8pkMilNBYBRdX66GelYsdQ8S5pHSjxhk4F7HyLCDUkZd5LO5owBQOB/ZCXRLbpNhAb+nu8XcKPFYVMqyRJSAtLSyKT1nzb2dXnGz8+tmyaIiAJ7uzhb3m29vuBE9SygLIDFmLIJ+xT9/iN9yj+4NmvK9rFcEBD8Ujs4mAfm28s++fThkbUKnFxNz7k9/njSOdSxt3erSGJkHMkTaFfoaUnTj5lCXLNyk61L7+BIBJAr/4vKmm1I/J6Sbzc2vWV/9uy6KJFTm9pJAZb0SJRB37I7Bg441cqpcFQN6Dq/xIDFBAXZ1bceI3ADxP1I5EidoE4cZH+t1j78adTfkguA3YCKKUIfmrVlm9Q8PddiCmF9aFyjm3F9+eWdinAlv0RtwANT4WL+AEctyKQDC9jW4CZYfr12aSay5peUt4zYH+3BI7fJONimk1W0GDZwRBy2cM5CGejgmPDaqdh7eG3D3lbbdhXM3IU+87iU7xPqqMfXJmTqq+u6OrcuJOu2ePJ+1hXBVMpcIKu/hZfJHRERYOey9XAW9AmcoYnBCztC0PNsfozAiwID+c0Or/bePb2kC+i1lB6a8s3sgRXnHRIeJJ4ECB3C7ANIp4yUei9nE76TkCpB4oTDp9qdFKQz49ckBf3bN62sco0sJY3Y+iN4WibJWtQGo4Jz1AFqF25gC+tEh8H0tjvb4qxEDDmDifsC6Y5zfi0bEMH/tLSeABqg4n69ibF0ZVKwGCEq+1JBWLKEDBsf5chZzhopT4cfZDs7QMrdxeX99kNnvV+ySaBo2x6PmLiM6Vt3cwobExo5xLRYXnAinJN5u1AJ8d2+nVtyudKWNjV33enLRwGhZr7ofPQtErKxvi6Nt+fCQHL9LOp5b3DQgZPuZM37em2Ml80UdgBUxOabg/Ff3B9WXLoHyyIC0srplzlUcyzAAXkOAOMbZjLF1WxEFdLQFccfXUjsOBSzUQeostFwZVFCA1YHC+O2DYSmeChmoFNP4RZ0MYwCopMUMDLSJ4DKdzRl60ZOVuEYox5ku0iFwx8VBUXTx9j99Mev+63+ei1Ntu7QUdCa1U0bLt4+G3e9+e8cWW4RERCUgNmsC6xVOAYD/+fvnJsr+8Yfb7h9+GLcIBGN+J93mj3+ekB65kH05HPoN+lgubQ1XfJxZxXC1OnW2TdIDvatfOht61UH62AD6418n3ZNfZ92SwIUro0eAgpN9/43CPgIW95It8v1XN9z80saVdNkrg+pQ/Li1VVxqqN0yEggZVKLg7wKw+L/m5zbcMnE4rc5cAlei3dN1+vbi0mewSs0QEQKw6DY2/arGkLBXT+pBzj99MWciqFfxT+YdZZhsAnSlw8NDyy7Y3z+QlXdg5xBLjAug4iHf2kqbuLfz/pLFVU/36/wvvOq8rwLH6GBfh3FU7iLw/ET6Et76aRkQ6H2I9GBVshp+93fjri0iq1SGAwZDd2erW7uCLnslUIUJJQY1LksEr3CpboTz5PFnGHiT2DI7blB4J98tafK0Hs+s0A89X57ztFdn5r3FImlb/8GBSPH5/psRNzO7bpx0Z0cZDbqG2PpZAemEdBXoxWsp1zd3BKBg9lNnDqPhWPcxrtN/GTroOo3CzS4qFtmQ6OsTmJulczWIa1EfqsOLiXlxyXUTg0QuqBJgY6W+koWIWDeXgxYPenKX9ME34mYW/vEq20VNZ69dEVR1Jn8Jydwc7jY9IltjBQ5QOnu75QyVbvVK7HpJzlAmt5rlWGAgRAJYCDaTV4/Fd48Igo6ZsFlNGP6iLXGvbeki67pvfgl9SDlZ4lCY+0w6hU8Dlf3yH1nAZABk13UMKP1TOTd/4BAAYY2jJ2GJ8yztb8sHtSjPO8YO7WS6YdxqT/4wOBLj67Wkyqi5HJLa5IsFqZ5/oLX8p68EKiwQzNMh6Trs22PSK1loj2GZ2Xt7TXlOb0zUaJ6NaJVs29ddJ5F2bJ7sibdLsgDn3YO7g7aqMeUH5PTtEejx+ZBhMLewZnrTzPyGm1aczoLimkXed5o7PVkQnR2AXfBXAUUxBbAwH00yELBWKWktwG2J3v0Dnxd2tk6AyD2ISMZJiUmEYpiYqM/ttF29+KMoUNFhOkRnSRDDoQZ7R4mtdIG26Cf4Z17JctqTQ5FXPiIeK12AAoSnvJtedf/9h5fSkbbcd1JwsXqJ2+E/Qq9EbPQJYONjadNXpudWTWz/8mxaiYe75hytbJ8Rkd4dEdpBf8Izn8HLaXKJfAwNPfCAVZoZJwsZlQbyFokpVxSo4JvmJxERiawPaYWec3ae7nLZfjG4NvlReFMMSiRiiOzMahYmiWzUSXme0ZGw+PCh9St3DH+a10ci5qMynSR5ZJYgPqBDiaAnshTx/xQ2S8VOZaAEXN0vggw+bM5s72W4Jfc70wxjwyjCWKAgpgFjqMNOFvhRFKhoDi6FYh6cnYCsKkWD9t7kZulWnW5SYgjLqbAJKq2HJyPUDKgf6HMz4pQLMrlfTSxa6INwC+8z7ZCHnbgef4ggwMaE4Wycl78JK5HcJ/p9Fjanf5+0Wkzvecpzpn0zCngWjkNYJuhYtJNbO/3jWpPig2E+LW9LjloMC10uqhQMKhBL5bzz4JYyEWD7OMvOk6ao9gu+OYyrTcojgEZRtmR/TfDpySi4yiJu9NF9FhRe6ZiN24NrQa4C/mLPZ+RBVxanTHkMirtydo6N9lhIhrfa0OdO6aHca6D6QOtMMP+s6Mvo/oF7853GoUkwe1l+KHQo5gcdC0sQ2i0uN2hRoIxmntY3yjhObFw3YedTWnUQZEYPzPYnX4N5zhUMKjqH0pZsbTZdgtdX+xJ6l6f2CpzC8wxXIDCKteIzQyvQ0KkqfVYrr+t+oN0+I2qbyZ5b3HC/PJ12LycXLESTUhhmQdYeyvmyRCMbORqbus2sZ9LIaiBjAIqFhZBLPRYt+lk05t0AXrH3QWjAVkghYI2fCy88KTG4QhB9eM5vKgA+M79qi1F7xq06xFx7j17uq02/BJ5xQWAtpsRRV5R5S0pNgU1nu1cwqDCJ29ri8suQjdCR4VLZevIfqDeQojBy5K/i7FmATUztgQKkc7KuyLUqlOBn6yr8tx8FHKqvt9XdVR47I4NbY/HhnU4RJ9MEIBqZTFvhmfFbOzihMiULKJ3CAAhGAHeQQXBrpMetrKTMJbGnycUyM2el2gzPhrrOfgMA+sBiA9xk0TZLDKPvPZTFyvloRIaOVAcAyCL9+sGgIgAjdh8hRHxa81owLBAcusXSt2BQgQzSPW7D0oV6EH1pYTmrXEaIS+vJvUH9QOzekXh5pq1Jb/hfkoiIwf+Te2v5jv0IsN4IsgYx2BhvV/R/wILES/L0o7wzqbhb7iqTAbHHvYAMBR1f0VnRB2B2FZDGMrO0GMUBH4kbogcRllqQb2lO+huGydmSj64AAD0IX9pzOYt591ezjAnE9k2BFT8VO3JWN1M2h7y/4r6ybG/JqmaOCQfNy9/2Sn43kgG9TqULRZSCQIXyFo1GLW8IawcPN8TLLWG1gSOOWcmsXJAevMgYa3YuIpYaHlZFHOfWd9HK4F5ERKdicGwamOheMqLDGSpZGBP/+xMU9DWJBdwbJOaR74XnmVXNCgdEcAccw1ircPhNTfCUcsrZRgXAGIP1Vh/rCi7D6XDRoM+QjzYqMUs6Smp3V8CYdz/+dUo60ra5Ixgjz140WubAPOivF8w6bZGbA0aQaIq4R/eHrH4AjliEgyUa/a4n3ArrG9vu2cs597NcIGl52ym5c2MnLvkoEFT1xpbJa4I953N2BiBAfAYMmNbUQZLVLL6ls7t7aSMwpitpLaxMY+h8F9Fz7oVTouPMjPWYUnq4i9e6eAJk6aOZJlcronpRduEU+soSFIJjuf0sHQqg/NPf35cakDSREY8mLf3ZRBR907MAhD6yIZW9g3/8v0l5tDflWjgxLJCIc4vr2uiwaC6aeLzNnq2v9+nEcOT21g1ZbuQ/SdfRLgcAySKnn7QBvfmdJR83qLB4iTf+/k+v3J7A8cPj2wIWep2cmgJuR1ILX/fyLPMAx1zS/X9QMPunv71Xv3esDgBabCkIVDSOYkwKR0RgwDwmKAorR37vyrG2K91iO0V4Qmm0EhH4c9bFYjGj2aXMIH9VkBWLgtXBwHyAVtYU3lsRMKZkN7OuTFlVyqtNDJPkU3WZJIhrRBR5ATj5Tc+1EWBe+pVgpfFnqFogJcLdjAWH5tT0srVHagiGAAvCFoqqlk/ckgWfaRzMCKDG0QknsJRgUKhJQLlFTLLF7N3MiqWQvJd+AygRc9miY9JgXoijsMhuSlnuJgtCtAHYgBTulhJtw2Kln0w42aR4yQE4qTKAgrbDeLifvr+bWdWzcMQd41q9Eq9Nor/3SQl8aoONs8zTxNsFccYFy044kIV4VZXiQlAxfjqpubQkLjr3Xh7ltExVgAPh+AY0W9IZmAii3uTjEPsyL26Gigx+Uol2pK0CDAAFgMidhohNmRVkYBPAPOgip0DmAefPwS1932TZSHEnrnWsyWQBFFfEKzUu9KFn0kEAEuDFLH/7btX0IK6Hgignvve/f3njpt6t2B5FQlWk6EQFfiYi6FC4D4gHoptQRwiBhLqYeHScGaXwbohmU6Jtt15sgqWIQQLNAPqiJhyAcT/9nJ5Zcz9G3ljOFOemtT2LufAywhMgtMccQHfSWMjdwnlscUu4nDpC+4x5bmHTAXzqhwH4ukJPi/uu+5d/+48ckp1/mEkivsWLM7pEPONKSjSDIyG3sX44x6Ahgv9Tp3TMwLJL50zV1OtFnvcBBRbOOY4RP3BFXpjmuRiczAMqcDPOY/oyGVNS2C1YWjyqrGesXNoD8FAbcDAmFFcmjr/cAlNiiz8AhKNGFFzGgchzbFiAo/Asuh6i86ICDABRvXScwIm5nyYtTSZDV/qAwkC7Jp7phIqFWDLt2Yk8H9CUuukjGx/Cbh0WQFrzR3/pJoumlGK0uKwCG5iQSzrv1IxWT4ZI2e/MgJkJ7rXCtx+v/bRDPnQ+3GJ5HpmbPRDtR4bTSMbr/rpd5ftkQAZWjPAQR3+IByYUgrK6AIAHqa+n2E8Dg0QI4jyUAKTsuMIFfWvY7hjQSM85kCpQx2sfZI/bM3rArnNPvodz6uEQmpCZeXTgRV6WdhliUUW2njqAKiCcmfzs9TN1h5/Q2LIkRCcU8ECr3O1ZuiHcXtL3heIv1AzBQTkpvUnlPSfE6kF+AAl4oZzr0rkT/r7sZ3gwc4KfPHLmdKZefxbwkJJrolfORkxnY9clEuTUxGU7ePEBE5lt1jqfAWQYyMWPn7rq68mp79TVkx/WT35mGz65dtkR/dU68CvisptLuF4QqKgfEIVX/ZAARkI/5q/tIDkPpxK6dPIoqwlCoExiHKBQbkhnw6rkRRaIl/oUAkHlMgCfVFuZo9z2c48r09q1rrVgUHllk42S0hUkf9lK1NKF78MncplIQkbZDF9tzLYK9QGr9voMrFqptdLdyFOaVW73vExwFGV8RQDMjAGB7gufx6sRvEJPFQQqJpmc0vV1PMqKK8miefpyXim+3e4bbXoYG+11cflA0HMol8n3MJYg18Nvr9eQ+7Mvq2dD1teKPOba4KiQwbYAxPYmzGR8YHApgOd1hRqkAg2vw3dBoKKjTPiRJhOlFO7ALlzvi9lxk5r4G/Jj8U4qUj0InBbCskw/ElDIOKQ+HIVwIbgSf3iRV/VNNoJxSDiS+gFHq5XrS4GCQZUdgiYU7sAkE49ak1MNh+GwQibshr2hFA+2VKHU47s5WwASIYItOUqJpbHPjSAnqRoAiS1YvE4Hjhi4ECAKoZ4aoM5S9Pr9Lh5UGoNZESZ+/G5X3olJDAvv7cDbNgtOPlCgtV/xL9uzL9cPYAKIBFZn5ewjgj6nsAUKN9uc4FZwQO7DSehFLqGEEpS060fvL6JHVwLVCWW8Nxpf0bE2K64SUpBSzZafp0paG7/d6+7yHnVlHeKtfaNXHc5L2TZvvNwCON5wB/h9cAJSEG36NijVAHVC6k/oqERQ+ZEikg71cXTs834IcWCx4e1+P7tmXly40ZpE3abOAyTEmRdvnxC1al0tiAJlAVVoCXCZ5afvtADmE702Mpe9z4nrxpEI0HK/rtYEXKDg5/FdVlAFkgAaXLeWIn3Kg5STopG5uQaoQLXP57sioArk8SpRDTaBHl/KdwTxUys1CpRMAUmnYKlH8E7XSo0CJVPAlGNeD3Dk/h+kuJbHTdHMVwAAAABJRU5ErkJggg==;" vertex="1" parent="J64CTBNtRXwiaGT3BZes-28">
          <mxGeometry x="83" y="141" width="63.86" height="30" as="geometry" />
        </mxCell>
        <mxCell id="J64CTBNtRXwiaGT3BZes-33" value="Apps" style="sketch=0;outlineConnect=0;fontColor=#232F3E;gradientColor=#F78E04;fillColor=#D05C17;strokeColor=#ffffff;dashed=0;verticalLabelPosition=bottom;verticalAlign=top;align=center;html=1;fontSize=12;fontStyle=0;aspect=fixed;pointerEvents=1;shape=mxgraph.aws4.container_1;fontFamily=Helvetica;" vertex="1" parent="J64CTBNtRXwiaGT3BZes-28">
          <mxGeometry x="174" y="133" width="40" height="40" as="geometry" />
        </mxCell>
        <mxCell id="J64CTBNtRXwiaGT3BZes-34" style="edgeStyle=orthogonalEdgeStyle;rounded=0;orthogonalLoop=1;jettySize=auto;html=1;exitX=0.5;exitY=1;exitDx=0;exitDy=0;" edge="1" parent="1" source="J64CTBNtRXwiaGT3BZes-16" target="J64CTBNtRXwiaGT3BZes-16">
          <mxGeometry relative="1" as="geometry" />
        </mxCell>
        <mxCell id="J64CTBNtRXwiaGT3BZes-35" style="edgeStyle=orthogonalEdgeStyle;rounded=0;orthogonalLoop=1;jettySize=auto;html=1;exitX=0;exitY=0.75;exitDx=0;exitDy=0;dashed=1;entryX=0.5;entryY=1;entryDx=0;entryDy=0;" edge="1" parent="1" source="J64CTBNtRXwiaGT3BZes-22" target="J64CTBNtRXwiaGT3BZes-30">
          <mxGeometry relative="1" as="geometry">
            <mxPoint x="1334" y="448" as="targetPoint" />
          </mxGeometry>
        </mxCell>
        <mxCell id="W0iHSewVSvGhZV9dLP-F-1" value="users" style="sketch=0;outlineConnect=0;gradientColor=none;fontColor=#545B64;strokeColor=none;fillColor=#879196;dashed=0;verticalLabelPosition=bottom;verticalAlign=top;align=center;html=1;fontSize=12;fontStyle=0;aspect=fixed;shape=mxgraph.aws4.illustration_users;pointerEvents=1" parent="1" vertex="1">
          <mxGeometry x="140" y="597.5" width="46" height="46" as="geometry" />
        </mxCell>
        <mxCell id="J64CTBNtRXwiaGT3BZes-84" style="edgeStyle=orthogonalEdgeStyle;rounded=0;sketch=1;orthogonalLoop=1;jettySize=auto;html=1;endArrow=classic;endFill=1;" edge="1" parent="1" target="J64CTBNtRXwiaGT3BZes-49">
          <mxGeometry relative="1" as="geometry">
            <mxPoint x="518" y="584" as="sourcePoint" />
            <Array as="points">
              <mxPoint x="586" y="584" />
              <mxPoint x="586" y="630" />
            </Array>
          </mxGeometry>
        </mxCell>
      </root>
    </mxGraphModel>
  </diagram>
</mxfile>
